<?xml version="1.0" encoding="utf-8" ?>
<svg xmlns="http://www.w3.org/2000/svg" xmlns:xlink="http://www.w3.org/1999/xlink" width="1024" height="1024">
	<path fill="#AAA9A9" d="M477.663 0L545.953 0L546.404 0.0799924C556.239 1.73724 566.624 1.80913 576.57 2.99152C594.623 5.28284 612.539 8.54405 630.241 12.761C750.663 41.3372 856.719 112.431 928.903 212.967C971.826 272.854 1001.39 341.262 1015.59 413.562C1017.93 425.638 1020.12 437.932 1021.4 450.166C1022.18 457.564 1022.28 470.121 1024 476.672L1024 547.719L1023.92 548.167C1022.22 557.616 1022.23 567.54 1021.04 577.088C1018.59 595.99 1015.1 614.743 1010.6 633.262C981.04 754.406 908.467 860.681 806.388 932.301C747.591 973.441 680.826 1001.81 610.397 1015.57C598.061 1018.01 585.631 1019.94 573.138 1021.37C565.104 1022.25 556.28 1022.32 548.436 1024L475.558 1024C467.451 1022.27 458.376 1022.22 450.089 1021.31C438.047 1019.98 426.057 1017.92 414.154 1015.66C342.899 1001.84 275.386 973.06 216.074 931.223C114.02 859.107 41.7533 752.263 12.8071 630.699C8.44404 612.42 5.09286 593.914 2.76881 575.266C1.63375 566.024 1.69794 556.434 0.0794865 547.301L0 546.876L0 477.226C1.5378 469.783 1.51466 461.384 2.31594 453.775C3.68831 441.146 5.57026 428.579 7.95719 416.102C21.8421 343.189 51.3651 274.15 94.4933 213.742C166.658 112.822 272.896 41.4153 393.596 12.7056C412.441 8.24357 431.522 4.84225 450.748 2.5177C459.505 1.45241 468.52 1.54676 477.195 0.083231L477.663 0Z"/>
	<path d="M791.084 108.135L792.096 108.107C811.325 107.715 849.887 141.257 863.864 154.705C897.557 187.125 929.233 226.736 947.188 270.299C950.285 277.814 954.176 286.577 954.151 294.835C954.138 298.965 952.928 303.716 949.795 306.607C946.268 309.861 941.057 310.341 936.497 309.813C927.409 308.761 918.424 304.648 909.774 301.748C889.724 295.024 868.936 288.304 847.686 286.954C834.647 286.036 821.561 287.904 809.3 292.434C781.272 302.725 750.233 327.549 726.286 345.863C717.111 352.88 707.493 359.697 698.805 367.3C700.652 369.895 702.247 372.605 703.854 375.351C720.988 362.781 737.917 349.946 755.359 337.797C776.302 323.209 798.806 315.078 824.527 319.807C846.539 323.853 865.192 336.892 877.666 355.318C890.52 374.614 895.185 398.225 890.637 420.96C887.559 436.7 879.561 452.88 867.463 463.667C861.291 469.17 854.139 473.654 847.309 478.292C848.76 480.939 850.348 483.611 851.266 486.501C852.998 491.95 852.726 497.475 849.88 502.511C845.976 509.419 839.135 512.623 831.825 514.526C836.342 523.353 842.101 531.663 846.89 540.374C857.356 559.725 865.409 580.288 870.867 601.6C890.235 675.124 875.011 753.217 837.06 818.162C786.393 904.868 694.499 964.628 598.731 989.69C481.009 1020.08 356.034 1002.37 251.394 940.461C172.177 894.015 109.564 823.844 72.407 739.869C63.13 719.35 55.5095 698.123 49.6182 676.389C32.5431 618.889 28.2964 551.272 37.1639 491.894C50.2923 403.984 89.9277 323.428 162.62 270.031C214.914 231.823 280.213 215.885 344.229 225.706C344.369 225.224 344.511 224.741 344.627 224.252C347.106 213.827 345.665 203.124 339.892 194.039C330.801 179.735 316.222 173.4 300.321 169.74C315.468 163.945 330.57 160.425 346.862 160.234C373.586 159.92 401.783 168.079 421.221 187.154C431.383 197.125 438.39 209.726 438.592 224.13C440.281 222.655 441.854 221.052 443.297 219.335C454.599 206.003 458.514 185.432 457 168.446C469.879 188.75 477.695 210.308 475.228 234.688C472.971 256.985 462.243 277.864 446.516 293.725C442.033 298.246 436.998 302.209 432.061 306.218C438.854 312.008 446.147 317.318 452.644 323.44C475.629 345.098 493.522 374.198 499.828 405.359C501.639 414.305 502.208 423.317 502.525 432.413C506.521 432.431 510.309 432.789 514.195 433.731C526.695 436.803 537.426 444.79 543.956 455.882C550.683 467.127 552.489 479.971 549.37 492.677C539.412 500.444 527.628 506.152 517.665 514.301L524.616 525.322C534.508 517.456 545.464 510.229 555.881 503.039C560.638 499.755 566.102 496.589 570.367 492.7C574.123 489.275 575.731 482.819 578.041 478.289C580.303 473.854 583.119 469.316 586.339 465.508C593.625 456.888 602.156 450.416 611.226 443.852C615.222 440.96 619.416 438.2 623.037 434.843C621.5 431.843 619.786 429.121 617.866 426.351C605.897 434.27 594.516 443.318 583.037 451.926C576.655 444.702 572.027 435.925 566.406 428.104C562.593 429.299 558.132 430.15 554.376 428.341C550.595 426.521 547.406 422.88 546.152 418.879C544.447 413.436 545.87 407.316 548.647 402.483C552.687 395.451 559.578 389.841 567.467 387.784C572.54 386.461 578.509 386.423 583.066 389.329C586.644 391.612 589.156 395.718 589.919 399.868C590.756 404.413 588.947 407.895 586.524 411.539C587.401 412.845 588.433 414.028 589.438 415.235C596.916 408.381 605.58 402.842 613.489 396.493C612.455 394.202 611.199 392.077 609.922 389.918C605.781 390.743 601.763 391.035 598.034 388.656C594.585 386.456 592.256 382.223 591.441 378.295C590.254 372.576 592.282 366.606 595.591 361.953C600.303 355.329 607.481 350.881 615.51 349.609C620.703 348.777 626.404 349.379 630.717 352.621C634.326 355.333 636.341 359.622 636.867 364.045C637.435 368.818 634.614 372.279 631.789 375.734L634.98 380.628C638.473 377.485 642.474 374.854 646.227 372.027C651.958 367.709 657.617 363.303 663.509 359.203C662.501 356.61 661.28 354.295 659.909 351.883C659.729 351.939 659.55 352 659.369 352.051C655.161 353.245 651.268 353.388 647.34 351.157C643.957 349.235 641.683 345.924 640.789 342.169C639.485 336.692 641.106 330.336 643.963 325.6C648.215 318.549 655.251 313.148 663.318 311.287C668.452 310.102 674.236 310.365 678.773 313.284C681.505 315.042 683.493 317.657 684.722 320.64C689.13 331.341 680.75 333.65 681.925 338.93C683.117 339.799 683.165 339.782 684.646 339.732C687.842 337.468 690.644 334.199 693.428 331.44C703.764 321.196 713.382 310.252 723.414 299.707C748.887 272.932 775.305 240.629 784.333 203.98C787.013 193.351 788.049 182.375 787.404 171.432C786.951 164.782 786.068 157.982 784.833 151.433C783.004 141.733 776.564 123.002 781.948 114.006C783.97 110.626 787.433 109.016 791.084 108.135Z"/>
	<path fill="#AAA9A9" d="M223.879 342.506C246.684 342.177 269.491 343.446 292.295 342.934C326.765 342.16 367.185 335.548 399.038 322.154L406.406 327.556C436.303 347.614 461.355 376.627 468.55 412.749C471.754 428.832 469.859 445.136 470.921 461.372C484.605 461.302 505.78 458.399 515.868 468.76C519.791 472.789 521.975 477.937 522.831 483.434C523.162 488.613 522.468 493.207 519.798 497.757C518.283 500.34 515.991 503.199 512.9 503.851C511.555 504.135 509.868 504.041 508.687 503.285C504.761 500.771 501.076 496.245 497.608 493.058C493.144 488.956 488.32 485.411 483.381 481.92C467.526 471.935 452.256 464.239 434.417 458.293L427.325 456.535L427.417 454.925C427.815 447.709 428.532 439.782 423.149 434.069C420.483 431.266 416.8 429.656 412.932 429.602C408.591 429.531 404.311 431.481 401.339 434.614C396.997 439.191 396.919 444.247 397.091 450.142C381.918 448.937 367.028 448.628 351.854 450.116C322.981 454.59 313.01 460.236 289.827 476.784C301.068 473.413 312.359 470.189 323.94 468.2C368.291 460.585 416.946 465.882 456.829 487.414C483.28 501.694 507.099 524.54 515.793 554.01C518.8 564.202 520.078 575.659 518.36 586.196C526.155 582.38 534.866 578.708 537.925 569.792C539.986 563.789 538.789 557.582 537.466 551.58C548.477 545.16 558.408 536.882 569.211 530.107C570.06 534.118 571.047 538.01 572.258 541.927C566.77 545.51 561.488 549.399 556.436 553.574C563.782 558.756 570.803 564.039 577.214 570.388C599.279 592.239 612.257 622.095 617.503 652.362C617.79 653.966 618.039 655.575 618.25 657.19C619.47 664.098 619.707 671.468 619.748 678.479C620.035 711.686 610.104 744.177 591.301 771.549C557.956 820.496 507.694 842.576 451.307 853.322C484.847 861.893 518.941 860.811 550.979 846.952C591.468 829.438 622.241 793.096 638.303 752.567C658.404 701.846 656.944 650.913 635.312 601.039C636.04 601.24 636.755 601.429 637.492 601.59C661.435 606.841 678.317 601.449 698.404 588.442C703.548 584.941 708.657 580.982 714.025 577.861C717.099 583.261 720.689 587.467 726.926 589.249C732.95 590.97 739.577 589.562 744.861 586.362C749.951 583.28 753.835 578.346 755.241 572.526C756.534 567.178 755.479 561.854 752.566 557.226C751.387 555.353 749.928 553.589 748.355 552.04C753.188 548.568 757.966 544.919 763.048 541.819C765.761 547.239 769.522 551.236 775.4 553.266C781.018 555.207 787.043 554.607 792.333 551.981C799.071 548.635 802.697 543.471 804.962 536.493C839.533 585.804 853.228 646.774 843.065 706.133C840.954 718.689 838.082 731.87 833.689 743.835C829.039 762.816 817.709 784.787 807.09 801.232C774.076 852.361 721.787 883.355 662.994 895.889C568.408 916.054 471.945 887.639 387.087 846.236C342.149 824.311 299.285 798.445 256.061 773.399C219.268 751.859 182.648 730.024 146.204 707.898C120.72 692.471 95.0215 677.233 70.0114 661.042C81.0239 651.818 92.1149 642.687 103.283 633.652C106.182 636.571 109.125 639.432 112.475 641.837C123.471 649.731 137.14 653.197 150.513 650.849C164.777 648.344 175.347 640.139 183.553 628.517C181.216 629.205 178.831 629.883 176.431 630.31C164.341 632.46 147.925 631.045 137.613 623.797C137.171 623.646 137.004 623.604 136.542 623.363C125.094 617.397 115.879 605.039 111.756 593.001C107.22 579.758 107.585 562.819 113.903 550.184C119.541 538.909 129.777 529.358 141.817 525.413C153.953 521.437 168.095 522.661 179.406 528.504C192.528 535.284 200.553 546.944 204.917 560.772C212.003 558.803 218.904 556.222 225.543 553.058C225.175 551.781 224.817 550.501 224.471 549.218C216.068 517.951 238.251 495.799 252.574 470.821C259.394 457.452 264.054 444.456 265.172 429.358C267.271 401.026 255.981 376.278 237.89 355.134C233.337 350.796 228.665 346.585 223.879 342.506Z"/>
	<path fill="#FEFEFE" d="M223.879 342.506C246.684 342.177 269.491 343.446 292.295 342.934C326.765 342.16 367.185 335.548 399.038 322.154L406.406 327.556C436.303 347.614 461.355 376.627 468.55 412.749C471.754 428.832 469.859 445.136 470.921 461.372C484.605 461.302 505.78 458.399 515.868 468.76C519.791 472.789 521.975 477.937 522.831 483.434C523.162 488.613 522.468 493.207 519.798 497.757C518.283 500.34 515.991 503.199 512.9 503.851C511.555 504.135 509.868 504.041 508.687 503.285C504.761 500.771 501.076 496.245 497.608 493.058C493.144 488.956 488.32 485.411 483.381 481.92C467.526 471.935 452.256 464.239 434.417 458.293L427.325 456.535L427.417 454.925C427.815 447.709 428.532 439.782 423.149 434.069C420.483 431.266 416.8 429.656 412.932 429.602C408.591 429.531 404.311 431.481 401.339 434.614C396.997 439.191 396.919 444.247 397.091 450.142C381.918 448.937 367.028 448.628 351.854 450.116C322.981 454.59 313.01 460.236 289.827 476.784C301.068 473.413 312.359 470.189 323.94 468.2C368.291 460.585 416.946 465.882 456.829 487.414C483.28 501.694 507.099 524.54 515.793 554.01C518.8 564.202 520.078 575.659 518.36 586.196C526.155 582.38 534.866 578.708 537.925 569.792C539.986 563.789 538.789 557.582 537.466 551.58C548.477 545.16 558.408 536.882 569.211 530.107C570.06 534.118 571.047 538.01 572.258 541.927C566.77 545.51 561.488 549.399 556.436 553.574C563.782 558.756 570.803 564.039 577.214 570.388C599.279 592.239 612.257 622.095 617.503 652.362C617.79 653.966 618.039 655.575 618.25 657.19C617.307 661.141 615.5 665.307 614.243 669.231C609.148 685.13 603.834 700.932 595.898 715.683C578.811 747.442 550.297 768.175 515.991 778.388C475.454 790.456 439.544 783.924 400.408 770.709C385.276 765.599 370.239 759.96 356.173 752.337C309.404 726.989 274.752 680.835 259.736 630.05C247.053 587.156 253.743 554.002 270.624 514.194C276 501.516 281.811 488.725 288.385 476.622C280.151 476.275 264.142 475.995 256.997 472.596C256.151 472.193 255.619 471.899 254.687 471.72C253.821 471.554 253.326 471.271 252.574 470.821C259.394 457.452 264.054 444.456 265.172 429.358C267.271 401.026 255.981 376.278 237.89 355.134C233.337 350.796 228.665 346.585 223.879 342.506Z"/>
	<path fill="#AAA9A9" d="M223.879 342.506C246.684 342.177 269.491 343.446 292.295 342.934C326.765 342.16 367.185 335.548 399.038 322.154L406.406 327.556C397.759 340.013 354.682 350.252 339.11 353.064C316.234 357.195 292.491 357.821 269.306 356.803C261.316 356.453 244.703 354.255 237.89 355.134C233.337 350.796 228.665 346.585 223.879 342.506Z"/>
	<path fill="#AAA9A9" d="M371.079 407.98C370.307 411.713 370.095 415.505 372.334 418.822C374.467 421.982 378.086 423.428 381.724 423.984C388.723 425.054 396.571 424.155 403.648 424.104C408.79 424.067 414.213 424.762 419.301 423.98C421.814 423.593 424.008 422.823 426.065 421.303C427.533 420.216 428.709 419.021 429.819 417.578C435.797 425.317 438.24 444.866 436.772 454.407C436.533 455.961 435.4 457.139 434.417 458.293L427.325 456.535L427.417 454.925C427.815 447.709 428.532 439.782 423.149 434.069C420.483 431.266 416.8 429.656 412.932 429.602C408.591 429.531 404.311 431.481 401.339 434.614C396.997 439.191 396.919 444.247 397.091 450.142C381.918 448.937 367.028 448.628 351.854 450.116C352.126 447.749 352.416 445.386 352.926 443.056C355.312 432.149 361.123 414.439 371.079 407.98Z"/>
	<path d="M371.079 407.98C374.024 403.502 376.834 400.593 382.32 399.458C387.102 398.469 412.536 398.496 417.494 399.284C420.313 399.733 423.045 400.625 425.425 402.234C428.099 404.042 429.922 406.566 430.459 409.777C430.875 412.391 430.655 415.067 429.819 417.578C428.709 419.021 427.533 420.216 426.065 421.303C424.008 422.823 421.814 423.593 419.301 423.98C414.213 424.762 408.79 424.067 403.648 424.104C396.571 424.155 388.723 425.054 381.724 423.984C378.086 423.428 374.467 421.982 372.334 418.822C370.095 415.505 370.307 411.713 371.079 407.98Z"/>
	<path fill="#AAA9A9" d="M483.381 481.92C487.169 481.568 490.935 481.797 494.73 481.714C504.62 481.498 513.134 481.257 522.831 483.434C523.162 488.613 522.468 493.207 519.798 497.757C518.283 500.34 515.991 503.199 512.9 503.851C511.555 504.135 509.868 504.041 508.687 503.285C504.761 500.771 501.076 496.245 497.608 493.058C493.144 488.956 488.32 485.411 483.381 481.92Z"/>
	<path fill="#FEFEFE" d="M804.962 536.493C839.533 585.804 853.228 646.774 843.065 706.133C840.954 718.689 838.082 731.87 833.689 743.835C831.424 745.542 822.198 761.406 819.376 765.302C803.546 787.157 784.776 805.729 762.027 820.299C709.724 853.798 656.971 863.51 595.666 861.607C584.86 861.272 568.968 861.604 558.769 859.377C567.367 852.347 577.365 846.414 586.439 839.942C613.456 820.672 638.812 799.425 657.098 771.393C667.042 756.148 674.787 739.48 682.127 722.867C684.811 716.792 687.893 710.613 689.993 704.316C701.857 668.75 706.172 625.268 698.404 588.442C703.548 584.941 708.657 580.982 714.025 577.861C717.099 583.261 720.689 587.467 726.926 589.249C732.95 590.97 739.577 589.562 744.861 586.362C749.951 583.28 753.835 578.346 755.241 572.526C756.534 567.178 755.479 561.854 752.566 557.226C751.387 555.353 749.928 553.589 748.355 552.04C753.188 548.568 757.966 544.919 763.048 541.819C765.761 547.239 769.522 551.236 775.4 553.266C781.018 555.207 787.043 554.607 792.333 551.981C799.071 548.635 802.697 543.471 804.962 536.493Z"/>
	<path fill="#FEFEFE" d="M137.613 623.797C137.171 623.646 137.004 623.604 136.542 623.363C125.094 617.397 115.879 605.039 111.756 593.001C107.22 579.758 107.585 562.819 113.903 550.184C119.541 538.909 129.777 529.358 141.817 525.413C153.953 521.437 168.095 522.661 179.406 528.504C192.528 535.284 200.553 546.944 204.917 560.772C207.74 576.538 207.678 591.339 198.183 605.028C191.412 614.79 178.733 625.278 166.76 627.361C159.466 628.63 151.952 626.659 144.962 624.654C142.69 624.003 140.313 623.013 137.929 623.12L138.578 623.556L137.613 623.797Z"/>
	<path d="M135.497 583.637C133.541 575.92 132.995 567.402 137.17 560.265C140.398 554.822 145.695 550.92 151.85 549.451C158.547 547.82 165.422 549.25 171.154 553.003C177.279 556.998 181.458 563.369 182.683 570.579C183.804 576.995 182.246 582.303 179.337 587.93C179.357 588.473 179.371 588.988 179.18 589.509C177.182 594.965 171.628 599.449 166.321 601.32C160.566 603.35 153.39 603.043 147.898 600.345C140.564 596.741 137.85 590.922 135.497 583.637Z"/>
	<path fill="#AAA9A9" d="M135.497 583.637C137.381 577.718 139.117 572.316 145.025 569.276C148.669 567.401 151.935 566.894 155.874 568.206C159.097 569.279 162.295 571.56 163.786 574.684C164.595 576.378 164.97 578.556 164.165 580.318C162.45 584.07 160.333 585.501 161.72 589.992C162.209 591.575 163.186 592.923 164.732 593.613C167.327 594.772 170.662 594.098 173.175 593.036C175.676 591.979 177.513 589.865 179.337 587.93C179.357 588.473 179.371 588.988 179.18 589.509C177.182 594.965 171.628 599.449 166.321 601.32C160.566 603.35 153.39 603.043 147.898 600.345C140.564 596.741 137.85 590.922 135.497 583.637Z"/>
	<path fill="#FEFEFE" d="M615.508 545.654C608.475 537.761 605.93 524.403 606.536 514.133C607.248 502.064 612.869 491.559 621.89 483.588C627.273 478.832 633.453 474.785 639.341 470.674C649.307 485.625 659.079 500.705 668.653 515.91C675.015 525.813 681.992 535.587 687.544 545.96C675.208 555.178 663.702 566.557 646.95 564.101C646.018 563.964 645.036 563.854 644.132 563.597C643.164 563.482 642.2 563.328 641.245 563.134C630.976 560.986 621.361 554.312 615.508 545.654Z"/>
	<path fill="#AAA9A9" d="M615.508 545.654C620.861 546.889 626.913 553.499 631.79 556.433C634.347 557.971 642.379 561.283 643.854 563.13C643.967 563.272 644.039 563.441 644.132 563.597C643.164 563.482 642.2 563.328 641.245 563.134C630.976 560.986 621.361 554.312 615.508 545.654Z"/>
	<path fill="#FEFEFE" d="M809.017 357.212C811.153 357.16 813.289 357.243 815.414 357.461C826.919 358.563 838.212 364.539 845.509 373.499C853.173 382.91 856.309 394.739 854.925 406.748C853.517 418.96 847.515 429.032 837.932 436.624C835.948 438.195 826.581 445.938 824.48 445.698C816.402 434.082 809.004 421.939 801.356 410.037C792.913 396.895 784.137 383.816 776.321 370.293C785.642 362.3 796.861 358.037 809.017 357.212Z"/>
	<path fill="#FEFEFE" d="M808.382 153.656C819.156 159.652 828.597 167.744 837.605 176.104C854.521 190.81 879.075 217.888 890.835 236.922C900.886 249.224 911.656 265.445 917.784 280.127C913.155 277.328 898.802 268.595 895.892 264.953C882.378 254.906 860.76 235.265 851.311 221.12C837.251 208.208 815.549 171.628 808.382 153.656Z"/>
	<path fill="#AAA9A9" d="M808.382 153.656C819.156 159.652 828.597 167.744 837.605 176.104C836.292 178.141 837.219 181.734 837.708 184.033C839.441 192.195 842.704 200.882 845.967 208.559C847.667 212.558 850.377 216.914 851.311 221.12C837.251 208.208 815.549 171.628 808.382 153.656Z"/>
	<path fill="#AAA9A9" d="M890.835 236.922C900.886 249.224 911.656 265.445 917.784 280.127C913.155 277.328 898.802 268.595 895.892 264.953C898.659 258.637 892.264 244.524 891.015 237.915L890.835 236.922Z"/>
	<path fill="#FEFEFE" d="M690.525 432.992C693.204 434.901 735.399 500.027 738.975 507.172C735.114 510.36 731.145 513.343 727.11 516.302C719.432 506.956 713.033 495.81 706.373 485.699C696.856 471.251 686.975 456.982 677.766 442.344C681.624 438.757 686.055 435.755 690.525 432.992Z"/>
	<path fill="#FEFEFE" d="M744.326 392.46C747.645 396.139 750.294 401.089 752.989 405.278C758.63 414.033 764.22 422.822 769.757 431.643L783.298 452.947C786.371 457.773 789.814 462.56 792.174 467.783C789.199 470.363 786.032 472.878 782.668 474.935C772.848 460.939 763.76 446.295 754.468 431.94C747.625 421.371 740.239 410.941 733.999 400.008C737.23 397.256 740.858 394.904 744.326 392.46Z"/>
	<path fill="#FEFEFE" d="M667.519 390.4C669.168 391.108 671.547 396.47 672.515 398.216L653.305 412.728L652.708 412.652L648.05 405.153C654.292 399.955 660.997 395.242 667.519 390.4Z"/>
</svg>
