<?xml version="1.0" encoding="utf-8" ?>
<svg xmlns="http://www.w3.org/2000/svg" xmlns:xlink="http://www.w3.org/1999/xlink" width="5400" height="1024">
	<path fill="white" d="M4736.6 154.5C4788 151.625 4834.95 165.835 4874.54 199.166Q4876.41 200.74 4878.25 202.359Q4880.08 203.979 4881.88 205.642Q4883.67 207.306 4885.42 209.012Q4887.18 210.719 4888.89 212.468Q4890.6 214.217 4892.27 216.007Q4893.94 217.797 4895.56 219.627Q4897.18 221.457 4898.76 223.326Q4900.34 225.195 4901.88 227.102Q4903.41 229.01 4904.89 230.953Q4906.38 232.897 4907.82 234.877Q4909.26 236.856 4910.65 238.87Q4912.04 240.884 4913.38 242.931Q4914.72 244.978 4916.01 247.057Q4917.3 249.137 4918.53 251.247Q4919.77 253.357 4920.96 255.496Q4922.15 257.636 4923.28 259.804Q4924.42 261.971 4925.5 264.166Q4926.58 266.361 4927.61 268.581Q4928.64 270.802 4929.61 273.047Q4930.58 275.292 4931.5 277.56Q4932.42 279.828 4933.28 282.117Q4934.15 284.407 4934.95 286.717Q4935.76 289.027 4936.51 291.356Q4937.26 293.685 4937.95 296.031Q4938.65 298.378 4939.28 300.74Q4939.92 303.103 4940.5 305.481Q4941.08 307.858 4941.6 310.249Q4942.12 312.64 4942.58 315.043Q4943.04 317.446 4943.44 319.859Q4943.85 322.272 4944.19 324.695Q4944.53 327.117 4944.82 329.547Q4945.1 331.978 4945.33 334.414C4947.05 354.732 4946.32 375.579 4946.4 395.98L4946.75 499.391L4947.09 617.892C4947.17 648.825 4949.31 681.225 4943.08 711.625Q4942.44 714.71 4941.7 717.772Q4940.96 720.835 4940.12 723.873Q4939.28 726.911 4938.35 729.921Q4937.42 732.931 4936.39 735.91Q4935.37 738.889 4934.25 741.835Q4933.13 744.78 4931.92 747.688Q4930.7 750.597 4929.4 753.466Q4928.1 756.335 4926.7 759.161Q4925.31 761.987 4923.83 764.768Q4922.35 767.549 4920.78 770.282Q4919.21 773.015 4917.56 775.697Q4915.9 778.379 4914.17 781.008Q4912.43 783.636 4910.61 786.209Q4908.79 788.781 4906.89 791.295Q4904.99 793.809 4903.01 796.261Q4901.03 798.714 4898.98 801.103C4863.45 842.969 4816.62 866.009 4762.24 870.541C4713.76 872.705 4668.64 858.404 4630.75 827.893C4589.01 794.275 4561.11 746.179 4555.47 692.648C4553.06 669.819 4554.08 646.386 4554.21 623.446L4554.75 519.978L4554.95 403.579C4555 373.625 4553.16 342.337 4558.99 312.87Q4559.59 309.946 4560.27 307.041Q4560.96 304.136 4561.73 301.253Q4562.51 298.371 4563.37 295.513Q4564.23 292.656 4565.18 289.826Q4566.13 286.995 4567.16 284.196Q4568.19 281.396 4569.31 278.629Q4570.43 275.862 4571.63 273.13Q4572.84 270.398 4574.12 267.704Q4575.41 265.011 4576.77 262.357Q4578.14 259.704 4579.59 257.093Q4581.04 254.483 4582.56 251.918Q4584.09 249.353 4585.69 246.835Q4587.29 244.318 4588.97 241.85Q4590.65 239.383 4592.41 236.967Q4594.16 234.552 4595.99 232.191Q4597.81 229.831 4599.71 227.527C4634.26 184.916 4682.4 160.136 4736.6 154.5ZM4758.74 749.5C4777.76 747.843 4794.41 736.931 4806.46 722.5C4816.54 710.431 4822.59 697.357 4824.93 681.795C4827.5 664.717 4826.07 646.129 4826.04 628.848L4825.81 535.239L4825.3 407.687C4825.19 386.529 4826.49 364.348 4824.59 343.336Q4824.51 342.37 4824.4 341.407Q4824.29 340.444 4824.16 339.484Q4824.03 338.524 4823.87 337.567Q4823.71 336.61 4823.54 335.658Q4823.36 334.705 4823.15 333.757Q4822.95 332.81 4822.73 331.867Q4822.5 330.924 4822.25 329.988Q4822 329.051 4821.73 328.121Q4821.46 327.19 4821.16 326.267Q4820.87 325.344 4820.55 324.428Q4820.23 323.512 4819.89 322.604Q4819.55 321.697 4819.19 320.798Q4818.83 319.899 4818.45 319.009Q4818.06 318.119 4817.65 317.239Q4817.25 316.359 4816.82 315.489Q4816.39 314.619 4815.94 313.76Q4815.5 312.901 4815.03 312.053Q4814.56 311.206 4814.07 310.37Q4813.58 309.534 4813.06 308.711Q4812.55 307.887 4812.02 307.076Q4811.49 306.266 4810.94 305.468Q4810.39 304.671 4809.82 303.888Q4809.25 303.104 4808.66 302.335Q4808.07 301.566 4807.46 300.811Q4806.85 300.057 4806.22 299.317Q4805.6 298.578 4804.95 297.855Q4804.31 297.131 4803.64 296.424Q4802.98 295.716 4802.3 295.025Q4801.62 294.334 4800.93 293.66Q4800.23 292.986 4799.52 292.33Q4798.8 291.673 4798.07 291.034Q4797.34 290.396 4796.6 289.775C4780.18 276.219 4761.13 273.049 4740.43 274.5C4718.26 279.825 4700.3 289.438 4688.05 309.397Q4686.88 311.281 4685.83 313.228Q4684.77 315.175 4683.83 317.179Q4682.89 319.184 4682.07 321.239Q4681.24 323.294 4680.53 325.393Q4679.83 327.492 4679.24 329.628Q4678.66 331.764 4678.2 333.93Q4677.73 336.096 4677.4 338.285Q4677.06 340.474 4676.85 342.679C4675.21 358.853 4676.13 375.786 4676.12 392.047L4676.1 478.901L4676.12 605.079C4676.13 632.683 4673.2 668.337 4679.64 694.494C4684.12 712.692 4699.13 730.769 4715.01 740.355C4726.33 747.193 4744.8 752.94 4758.07 749.679C4758.29 749.624 4758.52 749.56 4758.74 749.5Z"/>
	<path fill="white" d="M2067.67 154.5C2118.78 151.484 2165.92 165.858 2205.29 198.916Q2207.17 200.49 2209.01 202.11Q2210.85 203.73 2212.66 205.394Q2214.46 207.059 2216.22 208.766Q2217.98 210.474 2219.7 212.224Q2221.42 213.975 2223.09 215.766Q2224.77 217.558 2226.4 219.39Q2228.03 221.222 2229.62 223.094Q2231.2 224.965 2232.74 226.875Q2234.28 228.784 2235.77 230.731Q2237.27 232.677 2238.71 234.66Q2240.15 236.642 2241.55 238.659Q2242.95 240.677 2244.29 242.727Q2245.64 244.778 2246.93 246.861Q2248.23 248.943 2249.47 251.057Q2250.72 253.171 2251.91 255.315Q2253.1 257.458 2254.24 259.63Q2255.38 261.803 2256.47 264.002Q2257.55 266.201 2258.59 268.426Q2259.62 270.651 2260.6 272.901Q2261.57 275.151 2262.5 277.424Q2263.42 279.697 2264.28 281.991Q2265.15 284.286 2265.96 286.601Q2266.77 288.916 2267.53 291.251Q2268.28 293.585 2268.98 295.937Q2269.67 298.289 2270.31 300.657Q2270.95 303.026 2271.53 305.409Q2272.11 307.792 2272.63 310.189Q2273.15 312.585 2273.62 314.994Q2274.08 317.403 2274.49 319.822Q2274.89 322.241 2275.24 324.67Q2275.58 327.098 2275.87 329.534Q2276.15 331.971 2276.38 334.413C2278.09 354.715 2277.39 375.46 2277.47 395.845L2277.81 497.454L2278.13 618.084C2278.2 649.287 2280.25 681.728 2273.96 712.441Q2273.31 715.502 2272.56 718.542Q2271.82 721.582 2270.98 724.596Q2270.13 727.611 2269.2 730.598Q2268.26 733.584 2267.24 736.54Q2266.21 739.496 2265.09 742.419Q2263.97 745.341 2262.75 748.226Q2261.54 751.112 2260.24 753.958Q2258.94 756.804 2257.55 759.608Q2256.16 762.412 2254.68 765.171Q2253.2 767.93 2251.64 770.641Q2250.07 773.352 2248.42 776.013Q2246.78 778.674 2245.05 781.281Q2243.32 783.889 2241.5 786.441Q2239.69 788.993 2237.8 791.487Q2235.91 793.982 2233.94 796.415Q2231.97 798.849 2229.93 801.219C2194.43 843.017 2147.56 866.052 2093.24 870.541Q2091.06 870.67 2088.88 870.749Q2086.7 870.828 2084.52 870.857Q2082.33 870.885 2080.15 870.864Q2077.97 870.842 2075.79 870.77Q2073.61 870.698 2071.43 870.577Q2069.25 870.455 2067.07 870.282Q2064.9 870.11 2062.73 869.888Q2060.56 869.666 2058.39 869.394Q2056.23 869.122 2054.07 868.8Q2051.91 868.478 2049.76 868.106Q2047.61 867.735 2045.47 867.314Q2043.33 866.893 2041.19 866.423Q2039.06 865.952 2036.94 865.433Q2034.82 864.914 2032.72 864.347Q2030.61 863.779 2028.52 863.163Q2026.42 862.546 2024.34 861.882Q2022.26 861.218 2020.2 860.506Q2018.14 859.794 2016.09 859.035Q2014.05 858.276 2012.02 857.47Q2009.99 856.664 2007.98 855.811Q2005.97 854.958 2003.98 854.06Q2001.99 853.161 2000.03 852.217Q1998.06 851.273 1996.11 850.284Q1994.17 849.294 1992.25 848.261Q1990.33 847.227 1988.43 846.149Q1986.53 845.071 1984.66 843.95Q1982.79 842.829 1980.94 841.665Q1979.09 840.501 1977.27 839.295Q1975.46 838.089 1973.67 836.841Q1971.87 835.593 1970.11 834.305Q1968.35 833.016 1966.62 831.687Q1964.89 830.358 1963.19 828.99C1920.93 795.608 1892.78 747.641 1886.71 693.967C1884.16 671.487 1885.16 648.456 1885.28 625.865L1885.78 526.436L1885.98 407.082C1886.03 375.414 1884.14 342.508 1890.37 311.352C1896.43 281.075 1910.64 252.682 1929.88 228.633C1965.04 184.676 2012.27 160.709 2067.67 154.5ZM2089.8 749.501C2108.79 747.853 2125.43 736.941 2137.47 722.547C2147.61 710.434 2153.62 697.42 2155.97 681.783C2158.54 664.647 2157.1 646.015 2157.07 628.654L2156.86 535.422L2156.39 408.379C2156.29 386.991 2157.56 364.513 2155.63 343.252Q2155.46 341.332 2155.2 339.422Q2154.93 337.512 2154.57 335.617Q2154.22 333.723 2153.77 331.848Q2153.32 329.973 2152.78 328.122Q2152.24 326.272 2151.6 324.45Q2150.97 322.628 2150.25 320.839Q2149.54 319.05 2148.73 317.299Q2147.92 315.547 2147.03 313.837Q2146.14 312.127 2145.17 310.463Q2144.2 308.798 2143.14 307.183Q2142.09 305.569 2140.96 304.007Q2139.83 302.446 2138.62 300.942Q2137.41 299.438 2136.14 297.995Q2134.86 296.551 2133.51 295.172Q2132.16 293.793 2130.75 292.482Q2129.34 291.171 2127.86 289.93C2111.52 276.383 2092.14 272.903 2071.46 274.499C2048.77 279.969 2031.06 289.758 2018.63 310.189C2011.86 321.319 2009.1 332.203 2007.87 345.132C2006.34 361.305 2007.18 378.16 2007.18 394.401L2007.15 480.596L2007.17 602.825C2007.18 631.724 2004.21 667.792 2011.02 695.29C2015.49 713.337 2030.51 731.051 2046.29 740.491C2058.12 747.559 2076.04 752.753 2089.8 749.501Z"/>
	<path fill="white" d="M2358.27 165.5C2388.48 163.354 2419.96 165.139 2450.3 165.164C2450.53 165.344 2450.76 165.516 2450.99 165.704C2451.44 166.09 2618.43 548.321 2619.2 559.376C2620.2 557.75 2620.43 555.979 2620.47 554.094C2621.1 522.016 2619.65 489.651 2619.28 457.548L2616.76 256.256L2615.98 201.058C2615.86 190.726 2615 179.774 2616.4 169.562C2617.54 168.062 2618.72 167.044 2620.49 166.349C2627.04 163.776 2720.97 164.254 2727.88 167.149C2728.41 168.199 2728.83 169.287 2729.07 170.442C2731.33 181.07 2729.46 195.478 2729.49 206.449L2729.72 298.278L2730.13 680.084C2730.15 696.023 2731.93 837.781 2729.33 843.216C2729.01 843.889 2728.96 843.939 2728.61 844.5C2730.41 847.185 2730.56 850.544 2730.57 853.697C2730.58 856.714 2729.67 858.204 2727.62 860.274C2716.59 863.046 2652.74 861.029 2636.33 861C2636.34 860.761 2636.36 860.522 2636.37 860.282C2636.48 857.105 2482.96 529.278 2466.83 498.335C2465.65 496.071 2464.23 494.234 2462.43 492.428C2462.53 492.573 2462.64 492.714 2462.74 492.863C2464.56 495.706 2464.46 499.392 2464.58 502.666C2467.7 585.031 2467.89 667.76 2469.54 750.188L2470.94 817.426C2471.21 830.053 2473.04 844.96 2470.59 857.28C2469.19 859.173 2467.27 859.708 2465.07 860.185C2451.22 863.199 2431.13 860.876 2416.57 860.898C2399.79 860.923 2382.24 862.228 2365.55 860.907C2361.94 860.622 2358.64 860.171 2355.57 858.158C2352.39 849.174 2354.15 684.43 2354.13 659.129L2353.76 298.765L2353.46 208.429C2353.43 196.928 2351.59 181.65 2353.86 170.566C2354.41 167.901 2356.27 167.009 2358.27 165.5Z"/>
	<path fill="white" d="M2822.14 165.5C2832.42 164.382 2843.47 165.121 2853.84 165.122L2914.18 165.164C2914.84 165.749 2915.54 166.402 2916.04 167.138C2919.83 172.746 2922.45 181.378 2925.14 187.658L2945.49 235.101L3023.08 416.065L3063.14 509.559C3069.33 523.998 3077.28 539.17 3082.03 554.052C3082.55 555.705 3082.53 557.036 3082.16 558.731C3082.38 558.223 3082.61 557.714 3082.81 557.195L3083.09 556.49C3086.43 547.95 3083.82 510.662 3083.67 498.771L3080.8 270.935C3080.5 247.534 3077.2 186.093 3081.57 167.254C3082.54 166.768 3083.51 166.377 3084.56 166.091C3092.69 163.871 3187.77 164.592 3190.58 166.442C3191.8 167.249 3191.99 168.901 3192.31 170.266C3195.43 183.824 3193.35 213.735 3193.34 229.413L3193.64 349.849L3194.05 666.713C3194.12 723.229 3195.26 779.971 3194.16 836.467C3194.1 839.472 3194.12 841.844 3192.45 844.5C3193.92 846.759 3194.15 848.93 3194.35 851.565C3194.64 855.485 3194.15 857.342 3191.58 860.295C3181.38 862.943 3116.07 861.028 3100.27 861C3100.39 860.338 3100.47 860.122 3100.34 859.371C3099.01 851.77 3063.4 779.945 3057.72 767.872L2974.3 590.608C2960.05 560.351 2946.28 529.741 2931.45 499.77C2930.03 496.884 2928.74 494.653 2926.2 492.597C2926.47 493.056 2926.61 493.266 2926.86 493.786C2927.97 496.102 2928.24 498.721 2928.37 501.258C2929.99 532.768 2936.59 851.214 2934.27 857.236C2933.81 858.442 2931.88 859.693 2930.72 860.134C2925.44 862.137 2842.37 861.54 2831.72 860.923C2827.61 860.684 2823.42 860.297 2819.64 858.562C2816.43 852.843 2818.07 719.769 2818.06 701.754L2817.6 322.252L2817.42 211.66C2817.43 199.938 2815.59 183.469 2817.36 172.488C2817.94 168.889 2819.3 167.61 2822.14 165.5Z"/>
	<path fill="white" d="M3494.38 165.5C3511.21 164.705 3528.21 165.142 3545.07 165.134L3644.67 165.131C3716.22 165.152 3777.82 164.396 3832.27 219.059C3873.4 260.357 3888.18 316.585 3888.12 373.557C3888.05 439.046 3868.15 501.816 3820.95 548.709C3759.88 609.393 3702.98 604.314 3624.75 604.168L3611.76 604.168Q3612.32 605.433 3612.65 606.776Q3612.98 608.119 3613.07 609.498C3614.36 630.185 3613.71 854.902 3612.26 858.522C3612 859.191 3611.74 859.707 3611.06 859.995C3606.28 862.028 3499.14 861.849 3492.97 859.612C3492.61 858.991 3492.29 858.361 3492.03 857.685C3489.22 850.304 3491.69 700.233 3491.75 682.594L3492.63 359.159C3492.72 337.766 3491.36 171.763 3494.38 165.5ZM3611.5 284.844C3612.62 286.802 3612.98 288.411 3613.07 290.663C3613.71 305.988 3613.21 321.548 3613.21 336.897L3613.21 424.124C3613.21 435.368 3614.87 471.588 3612.85 480.379C3612.62 481.365 3612.23 482.168 3611.67 483C3634.37 483.059 3682.46 485.484 3702.28 481.386C3712.18 479.339 3722.32 475.282 3729.56 467.999C3730.43 467.121 3730.14 467.508 3730.66 466.5C3747.08 456.924 3758.39 431.789 3763.04 414.243C3770.92 384.541 3770.98 348.1 3755.14 320.891C3745.31 304.001 3730.83 291.533 3711.74 286.586C3689.94 280.939 3654.38 284.071 3631.31 284.5L3611.5 284.844Z"/>
	<path fill="white" d="M1613.5 154.499C1638.14 153.061 1663.47 155.149 1687.09 162.56C1737.39 178.343 1777.42 214.743 1801.49 261.229C1820.56 298.075 1823.54 334.464 1823.89 375.054C1823.96 383.795 1825.28 395.225 1822.65 403.498C1819.12 406.485 1715.41 404.961 1702.3 404.877C1702.38 404.738 1702.46 404.602 1702.53 404.459C1705.63 398.349 1704.02 355.285 1703.05 345.96Q1702.6 341.231 1701.63 336.581Q1700.66 331.93 1699.19 327.415C1692.77 307.946 1678.66 290.391 1660.2 281.173C1642.73 272.448 1620.95 271.691 1602.56 277.957C1584.73 284.03 1572.11 297.375 1563.96 314.01C1558.82 324.513 1556.04 335.71 1555.1 347.339C1553.67 365.036 1554.69 383.383 1554.73 401.175L1554.78 497.03L1554.75 611.866C1554.73 632.628 1553.77 653.822 1555.01 674.528Q1555.19 677.752 1555.58 680.956Q1555.98 684.16 1556.59 687.33Q1557.2 690.499 1558.03 693.62Q1558.86 696.74 1559.9 699.797C1566.39 718.524 1579.82 734.853 1597.83 743.475C1614.24 751.334 1634.46 752.353 1651.6 746.243C1671.21 739.251 1686.51 722.929 1695.24 704.337Q1696.51 701.637 1697.59 698.856Q1698.68 696.075 1699.56 693.226Q1700.45 690.376 1701.14 687.472Q1701.83 684.568 1702.31 681.623C1703.94 671.649 1705.94 626.525 1702.53 617.747C1702.45 617.532 1702.35 617.319 1702.27 617.105C1710.03 616.585 1717.96 616.866 1725.75 616.832C1758.06 616.848 1790.63 615.843 1822.89 617.051C1823.83 618.392 1824.44 619.7 1824.64 621.336C1825.82 630.972 1824.74 641.387 1824.79 651.132C1825.07 707.128 1814.83 753.68 1778.63 798.08C1745.62 838.563 1700.34 864.782 1648.1 869.9Q1645.74 870.15 1643.37 870.34Q1641 870.531 1638.62 870.662Q1636.25 870.794 1633.87 870.866Q1631.49 870.938 1629.12 870.951Q1626.74 870.964 1624.36 870.918Q1621.99 870.872 1619.61 870.767Q1617.24 870.661 1614.86 870.497Q1612.49 870.332 1610.12 870.108Q1607.76 869.885 1605.4 869.602Q1603.04 869.32 1600.68 868.979Q1598.33 868.637 1595.99 868.238Q1593.64 867.838 1591.31 867.38Q1588.98 866.922 1586.66 866.406Q1584.33 865.89 1582.03 865.316Q1579.72 864.742 1577.43 864.111Q1575.14 863.48 1572.86 862.792Q1570.58 862.104 1568.33 861.36Q1566.07 860.616 1563.83 859.815Q1561.59 859.015 1559.37 858.159Q1557.15 857.303 1554.96 856.392Q1552.76 855.481 1550.59 854.516Q1548.42 853.55 1546.27 852.531Q1544.12 851.512 1542 850.439Q1539.88 849.367 1537.78 848.242Q1535.69 847.117 1533.62 845.94Q1531.56 844.763 1529.52 843.535Q1527.48 842.307 1525.48 841.029Q1523.47 839.751 1521.5 838.423Q1519.53 837.095 1517.59 835.719Q1515.65 834.342 1513.75 832.918Q1511.85 831.493 1509.98 830.022Q1508.11 828.55 1506.28 827.033Q1504.37 825.464 1502.49 823.849Q1500.62 822.234 1498.79 820.573Q1496.95 818.911 1495.16 817.206Q1493.37 815.5 1491.62 813.75Q1489.87 812.001 1488.17 810.208Q1486.46 808.416 1484.8 806.582Q1483.14 804.749 1481.52 802.874Q1479.91 801 1478.34 799.086Q1476.77 797.173 1475.25 795.221Q1473.73 793.27 1472.26 791.281Q1470.79 789.292 1469.37 787.268Q1467.95 785.243 1466.57 783.185Q1465.2 781.126 1463.88 779.034Q1462.56 776.942 1461.29 774.817Q1460.02 772.693 1458.81 770.539Q1457.59 768.384 1456.43 766.2Q1455.27 764.016 1454.16 761.804Q1453.05 759.591 1452 757.353Q1450.95 755.114 1449.95 752.85Q1448.96 750.585 1448.01 748.297Q1447.07 746.009 1446.19 743.699Q1445.31 741.388 1444.48 739.057Q1443.65 736.725 1442.88 734.373Q1442.11 732.022 1441.4 729.652Q1440.69 727.283 1440.04 724.896Q1439.39 722.51 1438.8 720.108Q1438.2 717.706 1437.67 715.29Q1437.14 712.874 1436.66 710.446Q1436.19 708.018 1435.78 705.579Q1435.36 703.14 1435.01 700.691Q1434.66 698.242 1434.36 695.786Q1434.07 693.329 1433.84 690.866C1431.75 668.697 1432.72 646.037 1432.77 623.779L1433.01 517.791L1433.31 405.296C1433.43 374.004 1431.73 341.514 1438.06 310.73Q1438.68 307.751 1439.38 304.793Q1440.09 301.835 1440.89 298.899Q1441.69 295.964 1442.57 293.054Q1443.46 290.145 1444.44 287.264Q1445.41 284.383 1446.48 281.533Q1447.54 278.684 1448.69 275.868Q1449.84 273.052 1451.08 270.273Q1452.32 267.494 1453.64 264.754Q1454.96 262.014 1456.36 259.316Q1457.77 256.617 1459.25 253.964Q1460.74 251.31 1462.31 248.703Q1463.88 246.096 1465.52 243.538Q1467.17 240.98 1468.89 238.474Q1470.62 235.967 1472.42 233.515Q1474.21 231.063 1476.09 228.667Q1477.96 226.271 1479.91 223.934C1513.73 183.165 1561.05 159.356 1613.5 154.499Z"/>
	<path fill="white" d="M3919.7 165.5C3938.11 164.063 3957.29 165.142 3975.8 165.152L4080.64 165.157L4224.13 165.152C4249.2 165.155 4274.55 164.268 4299.57 165.38C4302.6 165.515 4304.29 165.638 4306.74 167.447C4308.8 177.337 4308.9 274.463 4306.81 283.648C4304.94 285.514 4303.07 285.498 4300.48 285.708C4286.28 286.86 4271.26 285.915 4256.99 285.907L4170.67 285.836C4171.25 286.695 4171.66 287.536 4171.91 288.553C4173.8 296.115 4172.32 312.784 4172.35 321.535L4172.61 413.718L4172.96 621.108L4173.02 688.296C4173.03 699.956 4173.58 711.932 4172.9 723.557C4172.79 725.472 4172.32 726.868 4171.29 728.5C4172.03 729.584 4172.58 730.749 4172.78 732.05C4174.85 745.798 4173.11 767.73 4173.14 782.175C4173.19 804.397 4174.95 834.805 4173.02 856.075C4172.86 857.871 4172.32 859.211 4171.22 860.654C4158.49 862.678 4142.87 861.029 4129.85 861.027C4104.69 861.023 4078.39 862.59 4053.39 860.236L4052.65 859.326C4052.92 856.998 4052.81 854.669 4053.21 852.371C4053.41 851.257 4052.58 851.867 4052.3 851.154C4051.16 848.151 4052.12 839.224 4052.12 835.506L4052.1 745.807L4052.12 420.87C4052.12 403.445 4054.12 292.558 4050.65 286.363C4050.55 286.182 4050.43 286.012 4050.32 285.836C4038.44 285.851 3927.02 285.141 3926.02 285.478C3925.59 285.625 3925.33 286.075 3924.98 286.373L3924.4 284.186L3921.92 284.163L3923.08 285.029L3918.91 284.44C3918.6 283.893 3918.31 283.328 3918.11 282.728C3916.8 278.722 3917.65 182.246 3918.29 171.396C3918.42 169.215 3918.78 167.492 3919.7 165.5Z"/>
	<path fill="white" d="M4358.04 165.5C4377.18 163.664 4397.92 165.14 4417.24 165.13C4436.12 165.12 4456.52 163.519 4475.25 165.555C4477.33 168.456 4476.97 172.054 4477.01 175.443L4477.8 675.53L4477.95 809.379C4477.96 819.381 4479.62 848.526 4477.99 856.723C4477.52 859.081 4476.21 859.455 4474.31 860.633C4474.15 860.667 4473.99 860.708 4473.82 860.735C4460.43 862.858 4442.05 861.09 4428.21 861.07C4406.08 861.038 4382.76 862.499 4360.75 860.741C4359.35 860.629 4358.34 860.211 4357.16 859.435C4353.98 850.535 4356.01 741.72 4356.04 720.591L4356.72 352.342C4356.76 332.765 4355.05 172.624 4358.04 165.5Z"/>
	<path fill="white" d="M3283.42 165.5C3299.33 163.986 3316.42 165.145 3332.44 165.128C3354.96 165.103 3377.93 164.154 3400.37 165.428C3400.75 165.972 3400.85 166.057 3401.12 166.596C3402.47 169.207 3402.18 172.476 3402.21 175.33C3402.88 234.001 3404.6 854.224 3402.63 858.609C3401.94 860.143 3399.68 860.464 3398.17 860.973C3382.09 860.995 3292.16 863.022 3283.82 860.132C3283.42 859.993 3282.57 859.064 3282.21 858.75C3279.35 849.591 3281.2 813.623 3281.22 801.259L3281.46 680.912L3282.1 177.291C3282.14 173.378 3281.74 169.127 3283.42 165.5Z"/>
	<path fill="#9F9F9F" d="M476.063 0L547.937 0C576.539 2.98933 604.631 6.69568 632.628 13.4365Q637.697 14.6628 642.741 15.9918Q647.784 17.3209 652.799 18.7523Q657.815 20.1837 662.8 21.7168Q667.785 23.2499 672.738 24.884Q677.691 26.5182 682.61 28.2527Q687.528 29.9872 692.411 31.8214Q697.293 33.6556 702.138 35.5888Q706.982 37.5219 711.786 39.5531Q716.589 41.5843 721.351 43.7128Q726.112 45.8413 730.83 48.0662Q735.547 50.2911 740.218 52.6114Q744.889 54.9318 749.512 57.3467Q754.135 59.7615 758.707 62.2699Q763.28 64.7783 767.801 67.3792Q772.322 69.98 776.789 72.6723Q781.256 75.3645 785.667 78.1471Q790.078 80.9296 794.432 83.8013Q798.786 86.673 803.081 89.6326Q807.375 92.5922 811.609 95.6386Q815.842 98.6849 820.013 101.817Q824.183 104.949 828.29 108.165Q832.396 111.38 836.435 114.679Q840.475 117.978 844.447 121.358Q848.419 124.739 852.322 128.199Q856.224 131.659 860.055 135.198Q863.886 138.737 867.644 142.354Q871.403 145.97 875.087 149.662Q878.771 153.354 882.379 157.12Q885.988 160.886 889.519 164.724Q893.049 168.563 896.502 172.472Q899.954 176.382 903.326 180.361Q906.698 184.34 909.988 188.387Q913.97 193.292 917.831 198.293Q921.691 203.294 925.427 208.389Q929.164 213.484 932.774 218.669Q936.384 223.854 939.865 229.126Q943.346 234.398 946.697 239.754Q950.048 245.11 953.266 250.547Q956.484 255.984 959.567 261.499Q962.65 267.013 965.597 272.602Q968.544 278.19 971.352 283.849Q974.161 289.509 976.829 295.235Q979.498 300.962 982.025 306.753Q984.552 312.543 986.936 318.394Q989.319 324.245 991.559 330.153Q993.798 336.06 995.891 342.021Q997.984 347.982 999.93 353.993Q1001.88 360.004 1003.67 366.061Q1005.47 372.117 1007.12 378.216Q1008.77 384.315 1010.27 390.453Q1011.76 396.591 1013.11 402.764Q1014.46 408.936 1015.65 415.14Q1016.85 421.344 1017.89 427.576Q1018.93 433.807 1019.82 440.063Q1020.7 446.318 1021.44 452.593Q1022.17 458.868 1022.75 465.159Q1023.33 471.45 1023.75 477.754Q1024.18 484.058 1024.45 490.37Q1024.72 496.682 1024.83 502.999Q1024.94 509.316 1024.9 515.633Q1024.86 521.951 1024.67 528.266Q1024.47 534.581 1024.12 540.889Q1023.77 547.197 1023.26 553.494Q1022.75 559.792 1022.09 566.075Q1021.43 572.32 1020.61 578.546Q1019.8 584.773 1018.83 590.978Q1017.87 597.183 1016.75 603.362Q1015.63 609.541 1014.36 615.692Q1013.09 621.842 1011.67 627.959Q1010.25 634.076 1008.68 640.157Q1007.12 646.237 1005.4 652.278Q1003.68 658.318 1001.82 664.314Q999.952 670.311 997.942 676.26Q995.931 682.209 993.775 688.107Q991.619 694.005 989.32 699.849Q987.02 705.692 984.578 711.478Q982.136 717.263 979.553 722.987Q976.971 728.711 974.248 734.37Q971.526 740.029 968.666 745.62Q965.806 751.21 962.81 756.729Q959.814 762.248 956.684 767.692Q953.554 773.136 950.292 778.502Q947.029 783.868 943.636 789.152Q940.243 794.436 936.722 799.635Q933.201 804.835 929.553 809.947Q925.905 815.058 922.134 820.079Q918.362 825.1 914.469 830.027Q910.575 834.954 906.563 839.785Q902.55 844.615 898.42 849.346Q894.29 854.076 890.045 858.704Q885.801 863.332 881.444 867.855Q877.088 872.378 872.622 876.793Q868.156 881.207 863.583 885.511Q859.01 889.815 854.334 894.006Q849.657 898.197 844.879 902.272Q840.101 906.347 835.225 910.304Q829.153 915.233 822.933 919.975Q816.713 924.717 810.351 929.267Q803.99 933.817 797.492 938.171Q790.995 942.525 784.367 946.678Q777.74 950.832 770.989 954.781Q764.238 958.73 757.37 962.472Q750.501 966.213 743.522 969.743Q736.542 973.273 729.459 976.589Q722.375 979.904 715.193 983.002Q708.012 986.1 700.739 988.977Q693.466 991.854 686.109 994.508Q678.751 997.162 671.317 999.59Q663.882 1002.02 656.376 1004.22Q648.871 1006.42 641.302 1008.39Q633.733 1010.36 626.107 1012.1Q618.481 1013.84 610.806 1015.34C589.87 1019.42 568.879 1020.7 547.937 1024L476.07 1024C468.722 1022.68 460.901 1022.39 453.46 1021.52Q432.756 1019.18 412.309 1015.17Q404.649 1013.65 397.039 1011.9Q389.428 1010.15 381.875 1008.17Q374.321 1006.19 366.832 1003.98Q359.342 1001.78 351.923 999.339Q344.504 996.903 337.163 994.242Q329.822 991.581 322.565 988.697Q315.308 985.813 308.142 982.71Q300.977 979.607 293.909 976.287Q286.841 972.967 279.878 969.434Q272.914 965.9 266.061 962.156Q259.209 958.412 252.473 954.461Q245.738 950.51 239.126 946.356Q232.514 942.201 226.032 937.848Q219.549 933.494 213.203 928.945Q206.856 924.396 200.65 919.655Q194.445 914.915 188.387 909.988Q184.332 906.691 180.345 903.313Q176.359 899.934 172.442 896.475Q168.524 893.016 164.679 889.478Q160.833 885.94 157.06 882.324Q153.287 878.708 149.589 875.016Q145.89 871.324 142.268 867.557Q138.645 863.791 135.101 859.951Q131.556 856.112 128.09 852.201Q124.624 848.29 121.238 844.309Q117.853 840.328 114.549 836.279Q111.245 832.23 108.025 828.115Q104.804 823.999 101.668 819.819Q98.5323 815.639 95.4821 811.395Q92.432 807.152 89.4689 802.847Q86.5059 798.543 83.6312 794.179Q80.7565 789.815 77.9713 785.393Q75.1861 780.971 72.4916 776.494Q69.7971 772.016 67.1944 767.485Q64.5917 762.953 62.0819 758.369Q59.5721 753.786 57.1562 749.152Q54.7403 744.518 52.4193 739.836Q50.0983 735.154 47.8732 730.425Q45.6482 725.697 43.5199 720.924Q41.3916 716.152 39.3611 711.336Q37.3305 706.521 35.3985 701.666Q33.4665 696.81 31.6338 691.916Q29.8011 687.022 28.0686 682.092Q26.336 677.162 24.7043 672.197Q23.0725 667.233 21.5423 662.236Q20.012 657.239 18.5839 652.213Q17.1558 647.186 15.8305 642.131Q14.5051 637.076 13.283 631.995C6.62514 604.207 2.96742 576.319 0 547.937L0 476.063C3.35468 454.736 4.6691 433.374 8.85117 412.064Q10.3695 404.432 12.1184 396.849Q13.8674 389.266 15.8454 381.74Q17.8234 374.213 20.0286 366.75Q22.2338 359.287 24.6642 351.895Q27.0946 344.502 29.7479 337.186Q32.4013 329.871 35.2751 322.639Q38.149 315.407 41.2408 308.266Q44.3325 301.124 47.6393 294.08Q50.9461 287.035 54.4649 280.094Q57.9836 273.153 61.7112 266.322Q65.4387 259.491 69.3716 252.776Q73.3045 246.061 77.4391 239.469Q81.5737 232.876 85.9063 226.412Q90.2388 219.947 94.7653 213.617Q99.2917 207.287 104.008 201.097Q108.724 194.907 113.626 188.863Q116.895 184.834 120.244 180.871Q123.594 176.909 127.023 173.015Q130.452 169.122 133.959 165.298Q137.466 161.474 141.049 157.722Q144.633 153.97 148.292 150.292Q151.95 146.613 155.683 143.009Q159.415 139.405 163.22 135.877Q167.024 132.349 170.899 128.899Q174.774 125.449 178.718 122.078Q182.662 118.707 186.673 115.416Q190.685 112.125 194.762 108.916Q198.839 105.707 202.98 102.581Q207.121 99.4556 211.324 96.4141Q215.528 93.3727 219.792 90.4168Q224.056 87.4609 228.379 84.5919Q232.702 81.7228 237.082 78.9417Q241.462 76.1607 245.897 73.4687Q250.333 70.7768 254.822 68.175Q259.311 65.5733 263.851 63.0629Q268.392 60.5524 272.982 58.1343Q277.573 55.7162 282.211 53.3914Q286.849 51.0666 291.534 48.836Q296.218 46.6055 300.947 44.4701Q305.675 42.3347 310.446 40.2953Q315.217 38.256 320.028 36.3135Q324.839 34.371 329.688 32.5262Q334.538 30.6814 339.423 28.935Q344.309 27.1886 349.229 25.5413Q354.149 23.8941 359.101 22.3466Q364.053 20.7992 369.036 19.3522Q374.018 17.9051 379.029 16.5592Q384.04 15.2132 389.077 13.9688C417.824 6.9253 446.668 3.08003 476.063 0Z"/>
	<path d="M788.802 108.212C790.732 108.128 792.669 108.075 794.6 108.165C818.832 109.296 871.707 160.993 888.582 179.983C909.415 203.427 956.022 267.047 953.786 297.369C953.516 301.038 952.394 305.057 949.33 307.383C944.92 310.729 938.282 310.117 933.173 309.245C924.548 307.772 916.14 303.726 907.868 300.9C891.025 295.146 872.785 289.807 855.124 287.625C842.001 286.004 828.982 286.554 816.24 290.219C778.897 300.962 729.663 343.05 698.864 367.07L703.823 375.156C715.937 366.915 727.552 357.739 739.423 349.133C765.505 330.223 789.35 314.074 823.12 319.59C844.869 323.142 863.692 335.691 876.388 353.546Q877.008 354.427 877.607 355.323Q878.206 356.219 878.782 357.13Q879.359 358.04 879.912 358.965Q880.466 359.889 880.997 360.827Q881.528 361.764 882.036 362.715Q882.543 363.665 883.028 364.628Q883.512 365.591 883.972 366.565Q884.433 367.54 884.869 368.525Q885.305 369.51 885.717 370.506Q886.129 371.502 886.516 372.507Q886.903 373.513 887.266 374.528Q887.628 375.543 887.966 376.566Q888.303 377.59 888.615 378.621Q888.927 379.652 889.214 380.691Q889.5 381.73 889.761 382.776Q890.022 383.821 890.258 384.873Q890.493 385.924 890.702 386.981Q890.911 388.039 891.094 389.1Q891.278 390.162 891.435 391.228Q891.592 392.295 891.722 393.364Q891.853 394.434 891.958 395.506Q892.062 396.579 892.14 397.654Q892.218 398.728 892.27 399.805Q892.321 400.881 892.346 401.959Q892.371 403.036 892.37 404.113Q892.368 405.191 892.34 406.268Q892.312 407.346 892.258 408.422Q892.203 409.498 892.123 410.573Q892.042 411.647 891.934 412.719Q891.827 413.792 891.693 414.861Q891.56 415.93 891.4 416.996Q891.24 418.062 891.054 419.123C886.096 447.691 870.103 462.43 847.498 478.383C848.862 480.966 850.403 483.709 851.24 486.522C852.792 491.73 852.521 497.835 849.83 502.628C845.972 509.501 838.857 512.532 831.65 514.637C847.477 540.433 860.846 565.977 869.145 595.303C889.881 668.569 877.308 746.513 840.313 812.423C791.732 898.978 702.803 960.593 608.256 987.097Q602.784 988.636 597.275 990.039Q591.766 991.441 586.224 992.706Q580.682 993.971 575.11 995.098Q569.538 996.225 563.94 997.214Q558.342 998.202 552.721 999.051Q547.1 999.9 541.46 1000.61Q535.819 1001.32 530.163 1001.89Q524.507 1002.45 518.838 1002.88Q513.17 1003.31 507.492 1003.6Q501.815 1003.88 496.132 1004.03Q490.449 1004.17 484.765 1004.18Q479.08 1004.18 473.397 1004.05Q467.714 1003.91 462.036 1003.63Q456.358 1003.35 450.689 1002.93Q445.02 1002.51 439.363 1001.95Q433.706 1001.39 428.065 1000.69Q422.423 999.993 416.801 999.153Q411.179 998.312 405.579 997.332Q399.98 996.353 394.406 995.234Q388.833 994.115 383.289 992.858Q377.745 991.602 372.234 990.207Q366.723 988.813 361.248 987.282Q355.773 985.751 350.339 984.085Q344.904 982.419 339.512 980.618Q334.12 978.817 328.774 976.882Q323.429 974.948 318.133 972.881Q312.838 970.815 307.595 968.617Q302.352 966.42 297.166 964.093Q291.979 961.765 286.852 959.31Q281.725 956.855 276.661 954.273Q271.596 951.691 266.598 948.984Q261.599 946.276 256.669 943.446Q251.993 940.786 247.383 938.012Q242.773 935.238 238.232 932.352Q233.691 929.466 229.223 926.47Q224.754 923.474 220.36 920.369Q215.965 917.265 211.648 914.054Q207.332 910.843 203.094 907.527Q198.857 904.212 194.703 900.794Q190.548 897.375 186.478 893.856Q182.408 890.338 178.425 886.72Q174.443 883.103 170.55 879.389Q166.657 875.676 162.856 871.868Q159.055 868.06 155.348 864.161Q151.641 860.261 148.031 856.272Q144.421 852.283 140.909 848.207Q137.398 844.131 133.987 839.97Q130.576 835.809 127.268 831.566Q123.96 827.323 120.756 823.001Q117.553 818.678 114.456 814.278Q111.36 809.879 108.372 805.405Q105.383 800.93 102.506 796.385Q99.6278 791.839 96.862 787.224Q94.0963 782.609 91.4442 777.928Q88.7921 773.247 86.2553 768.502Q83.7185 763.758 81.2984 758.953Q78.8784 754.147 76.5767 749.285Q74.2749 744.422 72.0927 739.504Q69.9106 734.586 67.8493 729.616Q65.7881 724.647 63.849 719.628Q61.91 714.609 60.0942 709.545Q58.2785 704.48 56.5871 699.373Q54.8958 694.266 53.3298 689.118Q51.7639 683.971 50.3243 678.787Q48.6742 673.061 47.177 667.292Q45.6799 661.524 44.3368 655.718Q42.9937 649.912 41.8057 644.072Q40.6176 638.232 39.5854 632.363Q38.5532 626.494 37.6776 620.599Q36.802 614.704 36.0836 608.788Q35.3652 602.872 34.8045 596.939Q34.2438 591.006 33.8413 585.061Q33.4387 579.115 33.1945 573.16Q32.9504 567.206 32.8648 561.247Q32.7792 555.288 32.8522 549.33Q32.9253 543.371 33.1569 537.416Q33.3885 531.461 33.7786 525.514Q34.1686 519.568 34.7168 513.633Q35.265 507.699 35.971 501.782Q36.6769 495.865 37.5401 489.968C50.9767 403.74 90.3547 322.692 162.209 270.384Q164.636 268.599 167.106 266.875Q169.576 265.15 172.088 263.487Q174.6 261.825 177.152 260.224Q179.704 258.624 182.295 257.087Q184.886 255.55 187.514 254.078Q190.143 252.605 192.806 251.198Q195.47 249.791 198.167 248.45Q200.865 247.11 203.595 245.836Q206.325 244.562 209.085 243.356Q211.846 242.15 214.635 241.012Q217.425 239.875 220.241 238.806Q223.058 237.738 225.9 236.74Q228.743 235.741 231.609 234.813Q234.475 233.885 237.363 233.028Q240.251 232.171 243.159 231.386Q246.067 230.601 248.994 229.887Q251.921 229.174 254.864 228.533Q257.808 227.892 260.766 227.324Q263.725 226.756 266.696 226.262Q269.668 225.767 272.651 225.346Q275.634 224.924 278.626 224.577Q281.618 224.23 284.618 223.956Q287.618 223.683 290.624 223.483Q293.63 223.284 296.64 223.159Q299.65 223.034 302.662 222.983Q305.674 222.933 308.686 222.957Q311.699 222.98 314.71 223.078Q317.721 223.176 320.728 223.349Q323.736 223.521 326.738 223.768Q329.74 224.014 332.736 224.335Q335.731 224.656 338.718 225.05Q341.704 225.445 344.68 225.913C346.487 213.536 346.038 202.809 338.672 192.135C329.486 178.825 314.908 172.684 299.609 169.782C315.709 164.084 331.623 160.256 348.815 160.289C374.918 160.339 403.185 168.777 421.917 187.694C431.877 197.753 438.486 210.34 438.422 224.703C454.006 208.848 457.274 190.451 457.251 169.015C471.604 189.948 478.526 215.05 474.468 240.29C470.163 267.073 453.758 290.287 431.99 305.944C438.769 311.701 445.746 317.305 452.348 323.259C474.567 343.296 493.203 373.379 499.474 402.803C501.493 412.275 501.875 422.196 502.357 431.84Q505.51 432.255 508.652 432.743C522.022 434.845 533.99 441.514 541.935 452.647C550.93 465.251 551.968 478.327 549.455 493.072C538.321 499.447 527.818 506.895 517.331 514.266L525.134 524.921Q548.521 507.906 572.453 491.665C580.332 464.674 601.824 450.492 623.465 434.989L618.011 426.647C605.745 434.206 594.304 443.483 582.779 452.135C579.45 447.36 569.742 429.84 564.416 428.42C560.136 427.28 555.544 428.29 551.258 426.651C549.096 425.824 547.279 424.242 546.429 422.059C544.557 417.249 545.453 408.804 547.677 404.199C551.861 395.539 558.948 390.578 567.831 387.634C572.072 386.229 579.957 386.908 583.873 389.088C594.259 394.866 585.665 405.448 588.232 413.379L589.894 413.673C597.217 410.516 606.937 402.271 612.755 396.729L612.779 395.154C607.191 385.523 604.774 393.667 597.441 388.245C593.995 385.699 591.722 382.05 591.211 377.779C590.466 371.56 593.147 365.235 596.911 360.41C601.214 354.893 608.766 349.97 615.915 349.232C621.141 348.694 628.092 349.997 632.16 353.482C640.291 360.449 633.163 370.287 633.921 378.549L635.531 379.041C640.34 377 660.314 363.025 662.809 358.868C662.447 356.145 661.483 354.609 659.964 352.427C657.555 351.552 655.269 352.773 652.802 352.944C650.201 353.125 647.179 352.255 645.228 350.532C642.383 348.02 641.168 344.278 640.862 340.591C640.23 332.969 643.341 325.504 648.255 319.784C652.764 314.534 660.049 311.166 666.927 310.711C671.835 310.387 676.97 311.59 680.681 314.957C691.49 324.764 681.891 334.804 682.143 339.293L683.648 339.866C685.597 339.241 686.682 338.149 688.158 336.776C698.574 327.093 708.15 316.074 717.857 305.682C750.623 270.603 787.442 229.168 787.632 178.295C787.71 157.317 779.378 137.594 780.113 116.765C782.747 113.106 785.008 110.72 788.802 108.212Z"/>
	<path fill="#CBCBCB" d="M399.103 322.128L406.819 327.846C436.818 348.483 461.847 376.855 468.577 413.653C471.418 429.187 470.702 445.462 470.94 461.223C484.598 461.131 505.211 458.124 515.651 468.518C519.49 472.34 521.428 477.055 522.651 482.235C523.687 487.15 522.769 493.027 520.303 497.402C518.953 499.799 516.998 501.996 514.2 502.625C506.014 504.466 495.727 491.505 489.845 486.685C486.833 484.218 483.407 482.122 480.138 480.009C466.232 470.792 451.579 464.082 435.796 458.765C433.669 458.271 429.918 457.6 428.26 456.191C425.032 453.449 428.452 439.377 424.082 434.1C421.607 431.111 417.206 430.016 413.471 429.863C409.101 429.683 404.726 431.17 401.585 434.264C396.861 438.919 396.958 444.105 396.901 450.286Q391.27 449.646 385.613 449.32Q379.955 448.994 374.288 448.984Q368.621 448.974 362.963 449.279Q357.304 449.584 351.671 450.203C328.476 453.726 309.739 460.916 291.575 476.043C348.248 460.694 407.199 459.015 459.78 489.04C485.472 503.71 508.3 526.414 516.203 555.647C518.903 565.634 519.367 575.525 518.857 585.815C526.491 582.242 534.596 578.724 537.706 570.184C539.877 564.222 538.848 557.819 537.626 551.762C548.179 544.464 558.812 537.261 569.282 529.846C570.142 533.843 570.844 537.974 572.142 541.854C566.881 545.659 561.364 549.327 556.518 553.649C591.92 578.494 610.449 612.244 617.876 654.502Q618.12 655.881 618.294 657.271C624.458 694.761 614.359 735.654 594.044 767.381C560.415 819.899 510.087 840.661 451.538 853.562C486.492 861.433 520.395 861.018 553.5 845.772C594.593 826.847 624.82 789.487 640.218 747.495C657.765 699.641 656.562 647.435 635.135 601.072L635.514 601.152C660.319 606.14 677.458 602.238 698.493 588.304Q706.195 583.179 713.696 577.765C717.793 583.896 721.688 588.186 729.238 589.577C735.124 590.662 741.158 589.175 746.05 585.784Q746.493 585.482 746.92 585.159Q747.348 584.836 747.759 584.492Q748.17 584.148 748.563 583.784Q748.956 583.42 749.331 583.037Q749.706 582.654 750.062 582.253Q750.417 581.852 750.753 581.434Q751.088 581.016 751.402 580.582Q751.717 580.148 752.009 579.699Q752.301 579.25 752.571 578.787Q752.841 578.324 753.088 577.848Q753.334 577.372 753.557 576.885Q753.78 576.397 753.978 575.899Q754.176 575.401 754.35 574.894Q754.523 574.387 754.672 573.872Q754.82 573.357 754.943 572.836Q755.065 572.314 755.162 571.787C756.514 564.012 753.676 558.385 749.241 552.235L748.848 551.699L762.748 541.802C766.545 547.931 770.951 552.363 778.231 553.969C784.053 555.254 789.816 553.907 794.733 550.623C799.919 547.158 802.798 542.604 805.214 536.984C839.509 583.353 852.067 646.067 843.678 702.573C841.864 714.793 839.332 732.552 833.571 743.681C829.493 761.93 819.684 781.123 809.874 796.938C777.716 848.782 727.162 880.954 668.329 894.728C524.804 928.328 390.793 851.051 271.207 782.215Q169.695 723.139 69.8912 661.22Q86.3863 647.246 103.189 633.644C106.948 637.354 110.658 640.788 115.196 643.559C126.879 650.692 140.54 653.46 153.965 650.152C165.683 647.264 176.386 639.692 182.63 629.321C179.678 629.922 176.716 630.45 173.716 630.73C158.346 632.167 143.18 629.556 130.964 619.471C122.832 613.752 116.946 605.528 113.143 596.412C107.484 582.847 106.967 566.268 112.738 552.67C117.724 540.924 127.556 531.049 139.46 526.365Q140.584 525.933 141.728 525.556Q142.873 525.18 144.034 524.86Q145.195 524.54 146.371 524.278Q147.547 524.016 148.734 523.812Q149.921 523.608 151.117 523.463Q152.312 523.318 153.514 523.231Q154.715 523.145 155.919 523.118Q157.124 523.091 158.328 523.124Q159.532 523.156 160.733 523.248Q161.934 523.339 163.129 523.49Q164.324 523.641 165.51 523.85Q166.697 524.059 167.871 524.327Q169.045 524.594 170.205 524.919Q171.365 525.244 172.508 525.626Q173.65 526.008 174.772 526.445Q175.895 526.883 176.994 527.375C191.97 534.122 199.479 545.905 204.996 560.677C212.121 558.693 218.796 555.974 225.604 553.105Q224.468 549.483 223.635 545.78C217.237 517.288 239.215 492.243 253.275 469.885C259.352 457.102 263.881 444.571 265.04 430.359C267.393 401.51 256.379 376.864 237.995 355.253C233.375 350.808 228.514 346.666 223.642 342.502C242.634 341.654 262.037 343.009 281.077 342.997C320.604 342.972 362.327 337.109 399.103 322.128Z"/>
	<path fill="white" d="M399.103 322.128L406.819 327.846C436.818 348.483 461.847 376.855 468.577 413.653C471.418 429.187 470.702 445.462 470.94 461.223C484.598 461.131 505.211 458.124 515.651 468.518C519.49 472.34 521.428 477.055 522.651 482.235C523.687 487.15 522.769 493.027 520.303 497.402C518.953 499.799 516.998 501.996 514.2 502.625C506.014 504.466 495.727 491.505 489.845 486.685C486.833 484.218 483.407 482.122 480.138 480.009C466.232 470.792 451.579 464.082 435.796 458.765C433.669 458.271 429.918 457.6 428.26 456.191C425.032 453.449 428.452 439.377 424.082 434.1C421.607 431.111 417.206 430.016 413.471 429.863C409.101 429.683 404.726 431.17 401.585 434.264C396.861 438.919 396.958 444.105 396.901 450.286Q391.27 449.646 385.613 449.32Q379.955 448.994 374.288 448.984Q368.621 448.974 362.963 449.279Q357.304 449.584 351.671 450.203C328.476 453.726 309.739 460.916 291.575 476.043C348.248 460.694 407.199 459.015 459.78 489.04C485.472 503.71 508.3 526.414 516.203 555.647C518.903 565.634 519.367 575.525 518.857 585.815C526.491 582.242 534.596 578.724 537.706 570.184C539.877 564.222 538.848 557.819 537.626 551.762C548.179 544.464 558.812 537.261 569.282 529.846C570.142 533.843 570.844 537.974 572.142 541.854C566.881 545.659 561.364 549.327 556.518 553.649C591.92 578.494 610.449 612.244 617.876 654.502Q618.12 655.881 618.294 657.271C610.096 678.523 605.036 700.036 593.465 720.005C575.578 750.872 545.378 770.693 511.264 779.719C460.105 793.255 394.45 774.913 349.481 748.608C304.624 722.367 270.932 673.767 257.978 623.838C247.293 582.656 256.095 546.652 273.023 508.587C277.784 497.88 282.612 486.894 288.545 476.78C281.512 476.276 274.434 475.851 267.43 475.039C262.656 474.486 256.451 473.909 253.275 469.885C259.352 457.102 263.881 444.571 265.04 430.359C267.393 401.51 256.379 376.864 237.995 355.253C233.375 350.808 228.514 346.666 223.642 342.502C242.634 341.654 262.037 343.009 281.077 342.997C320.604 342.972 362.327 337.109 399.103 322.128Z"/>
	<path fill="#CBCBCB" d="M399.103 322.128L406.819 327.846C380.911 352.441 310.661 357.896 275.635 356.964C263.642 356.646 249.736 354.084 237.995 355.253C233.375 350.808 228.514 346.666 223.642 342.502C242.634 341.654 262.037 343.009 281.077 342.997C320.604 342.972 362.327 337.109 399.103 322.128Z"/>
	<path fill="#CBCBCB" d="M351.671 450.203C351.702 449.802 351.731 449.401 351.773 449.001C353.159 435.618 359.856 417.162 370.55 408.522C370.522 412.87 370.414 416.692 373.716 419.994C381.798 428.076 410.639 424.141 422.044 423.948C424.82 421.96 427.97 420.026 430.243 417.475C436.068 427.966 439.295 446.667 435.923 458.35C435.883 458.489 435.839 458.627 435.796 458.765C433.669 458.271 429.918 457.6 428.26 456.191C425.032 453.449 428.452 439.377 424.082 434.1C421.607 431.111 417.206 430.016 413.471 429.863C409.101 429.683 404.726 431.17 401.585 434.264C396.861 438.919 396.958 444.105 396.901 450.286Q391.27 449.646 385.613 449.32Q379.955 448.994 374.288 448.984Q368.621 448.974 362.963 449.279Q357.304 449.584 351.671 450.203Z"/>
	<path d="M370.55 408.522C374.524 402.701 377.724 400.605 384.704 399.346C395.32 397.433 416.569 396.382 425.43 402.756C427.949 404.567 430.031 407.419 430.505 410.538C430.84 412.746 430.581 415.283 430.243 417.475C427.97 420.026 424.82 421.96 422.044 423.948C410.639 424.141 381.798 428.076 373.716 419.994C370.414 416.692 370.522 412.87 370.55 408.522Z"/>
	<path fill="#CBCBCB" d="M480.138 480.009C494.021 482.849 507.918 480.157 521.73 483.403L522.651 482.235C523.687 487.15 522.769 493.027 520.303 497.402C518.953 499.799 516.998 501.996 514.2 502.625C506.014 504.466 495.727 491.505 489.845 486.685C486.833 484.218 483.407 482.122 480.138 480.009Z"/>
	<path fill="white" d="M805.214 536.984C839.509 583.353 852.067 646.067 843.678 702.573C841.864 714.793 839.332 732.552 833.571 743.681C829.015 748.153 825.185 756.496 821.418 761.922C811.465 776.255 800.271 789.702 787.231 801.336C770.541 816.226 751.032 828.06 730.75 837.374C672.668 864.047 619.753 863.194 557.995 859.782C593.271 835.459 629.549 811.384 654.281 775.541C691.55 721.529 710.274 653.332 698.493 588.304Q706.195 583.179 713.696 577.765C717.793 583.896 721.688 588.186 729.238 589.577C735.124 590.662 741.158 589.175 746.05 585.784Q746.493 585.482 746.92 585.159Q747.348 584.836 747.759 584.492Q748.17 584.148 748.563 583.784Q748.956 583.42 749.331 583.037Q749.706 582.654 750.062 582.253Q750.417 581.852 750.753 581.434Q751.088 581.016 751.402 580.582Q751.717 580.148 752.009 579.699Q752.301 579.25 752.571 578.787Q752.841 578.324 753.088 577.848Q753.334 577.372 753.557 576.885Q753.78 576.397 753.978 575.899Q754.176 575.401 754.35 574.894Q754.523 574.387 754.672 573.872Q754.82 573.357 754.943 572.836Q755.065 572.314 755.162 571.787C756.514 564.012 753.676 558.385 749.241 552.235L748.848 551.699L762.748 541.802C766.545 547.931 770.951 552.363 778.231 553.969C784.053 555.254 789.816 553.907 794.733 550.623C799.919 547.158 802.798 542.604 805.214 536.984Z"/>
	<path fill="white" d="M130.964 619.471C122.832 613.752 116.946 605.528 113.143 596.412C107.484 582.847 106.967 566.268 112.738 552.67C117.724 540.924 127.556 531.049 139.46 526.365Q140.584 525.933 141.728 525.556Q142.873 525.18 144.034 524.86Q145.195 524.54 146.371 524.278Q147.547 524.016 148.734 523.812Q149.921 523.608 151.117 523.463Q152.312 523.318 153.514 523.231Q154.715 523.145 155.919 523.118Q157.124 523.091 158.328 523.124Q159.532 523.156 160.733 523.248Q161.934 523.339 163.129 523.49Q164.324 523.641 165.51 523.85Q166.697 524.059 167.871 524.327Q169.045 524.594 170.205 524.919Q171.365 525.244 172.508 525.626Q173.65 526.008 174.772 526.445Q175.895 526.883 176.994 527.375C191.97 534.122 199.479 545.905 204.996 560.677C207.673 577.497 207.147 592.533 196.701 606.935C189.455 616.925 178.372 625.443 165.968 627.28C152.234 629.315 143.419 622.294 130.964 619.471Z"/>
	<path d="M135.306 582.998C133.64 574.856 132.975 566.771 137.676 559.445Q137.986 558.965 138.319 558.501Q138.652 558.038 139.009 557.591Q139.365 557.145 139.743 556.717Q140.121 556.289 140.52 555.88Q140.919 555.471 141.338 555.083Q141.757 554.695 142.195 554.328Q142.632 553.962 143.088 553.617Q143.544 553.273 144.016 552.952Q144.488 552.631 144.976 552.334Q145.464 552.037 145.966 551.765Q146.468 551.492 146.983 551.246Q147.498 550.999 148.025 550.778Q148.552 550.557 149.089 550.363Q149.626 550.169 150.172 550.002Q150.718 549.835 151.272 549.696Q151.826 549.557 152.386 549.445Q153.002 549.321 153.623 549.227Q154.244 549.133 154.87 549.07Q155.495 549.008 156.122 548.976Q156.75 548.944 157.378 548.943Q158.006 548.942 158.634 548.973Q159.261 549.003 159.887 549.064Q160.512 549.125 161.133 549.218Q161.755 549.31 162.371 549.432Q162.987 549.555 163.597 549.708Q164.206 549.861 164.807 550.044Q165.408 550.228 165.999 550.44Q166.591 550.653 167.171 550.894Q167.751 551.136 168.318 551.406Q168.885 551.676 169.439 551.973Q169.992 552.271 170.53 552.596Q171.068 552.92 171.589 553.271Q172.105 553.616 172.604 553.986Q173.102 554.356 173.581 554.75Q174.061 555.144 174.52 555.562Q174.979 555.98 175.417 556.42Q175.855 556.86 176.27 557.322Q176.685 557.783 177.077 558.265Q177.468 558.746 177.836 559.247Q178.203 559.747 178.545 560.266Q178.886 560.784 179.202 561.318Q179.517 561.853 179.806 562.403Q180.094 562.952 180.355 563.516Q180.616 564.079 180.848 564.655Q181.08 565.23 181.284 565.817Q181.487 566.403 181.661 566.999Q181.835 567.595 181.978 568.199Q182.122 568.803 182.236 569.413C183.782 577.377 181.465 582.156 178.819 589.371C175.528 596.702 170.754 599.166 164.011 602.762C158.194 602.594 152.331 602.659 147.029 599.909C140.237 596.385 137.487 589.894 135.306 582.998Z"/>
	<path fill="#CBCBCB" d="M135.306 582.998C137.328 577.712 140.093 571.223 145.511 568.618C148.93 566.974 153.936 566.959 157.426 568.399C159.883 569.413 161.436 571.17 162.429 573.6C165.012 579.917 159.63 591.094 165.956 594.729C171.243 594.384 174.694 592.605 178.819 589.371C175.528 596.702 170.754 599.166 164.011 602.762C158.194 602.594 152.331 602.659 147.029 599.909C140.237 596.385 137.487 589.894 135.306 582.998Z"/>
	<path fill="white" d="M639.05 471.008C644.808 475.098 681.07 535.058 687.497 545.773C677.774 553.679 669.182 560.603 656.969 564.252C653.078 564.395 649.007 564.424 645.157 563.794Q644.027 563.619 642.907 563.389Q641.787 563.158 640.679 562.872Q639.572 562.586 638.48 562.245Q637.389 561.905 636.315 561.511Q635.242 561.116 634.189 560.669Q633.137 560.222 632.108 559.723Q631.079 559.224 630.076 558.674Q629.073 558.125 628.099 557.527Q627.124 556.928 626.181 556.282Q625.237 555.636 624.327 554.943Q623.417 554.251 622.542 553.515Q621.667 552.778 620.83 551.999Q619.993 551.22 619.196 550.4Q618.398 549.58 617.643 548.722Q616.887 547.864 616.175 546.969Q615.463 546.074 614.796 545.145C607.567 534.938 604.909 521.355 607.188 509.098C610.618 490.657 624.626 480.77 639.05 471.008Z"/>
	<path fill="white" d="M805.106 357.304C808.919 357.001 812.824 357.032 816.616 357.554Q817.719 357.71 818.814 357.92Q819.908 358.129 820.991 358.391Q822.074 358.653 823.144 358.967Q824.213 359.281 825.266 359.646Q826.318 360.011 827.352 360.426Q828.386 360.842 829.399 361.307Q830.412 361.772 831.401 362.285Q832.39 362.798 833.353 363.358Q834.317 363.919 835.252 364.525Q836.187 365.131 837.091 365.782Q837.996 366.432 838.868 367.126Q839.74 367.819 840.578 368.554Q841.416 369.289 842.217 370.063Q843.019 370.837 843.782 371.649Q844.545 372.461 845.268 373.309Q845.991 374.157 846.672 375.039Q847.333 375.911 847.95 376.816Q848.567 377.721 849.137 378.656Q849.707 379.59 850.23 380.552Q850.753 381.514 851.226 382.501Q851.7 383.489 852.123 384.498Q852.546 385.508 852.918 386.538Q853.29 387.568 853.61 388.615Q853.93 389.662 854.196 390.724Q854.463 391.786 854.675 392.86Q854.888 393.934 855.047 395.017Q855.205 396.101 855.309 397.191Q855.413 398.28 855.462 399.374Q855.51 400.468 855.504 401.563Q855.498 402.658 855.437 403.751Q855.375 404.844 855.259 405.933Q855.143 407.022 854.972 408.103C852.194 426.203 840.027 435.282 826.27 445.216C825.439 445.54 825.002 445.276 824.148 445.095C807.314 421.015 791.238 395.41 776.274 370.121C785.256 363.377 794.029 359.399 805.106 357.304Z"/>
	<path fill="white" d="M808.004 152.978C818.414 159.534 828.676 167.134 837.274 175.963C855.482 190.774 878.064 216.018 890.27 236.15Q894.391 241.366 898.228 246.794Q902.065 252.222 905.608 257.847Q909.151 263.472 912.389 269.278Q915.627 275.083 918.551 281.053C911.36 276.188 901.695 271.02 895.786 264.762C882.439 256.527 858.912 232.951 850.786 220.217C834.127 204.868 816.844 174.003 808.004 152.978Z"/>
	<path fill="#CBCBCB" d="M808.004 152.978C818.414 159.534 828.676 167.134 837.274 175.963C835.653 189.754 846.201 207.36 850.786 220.217C834.127 204.868 816.844 174.003 808.004 152.978Z"/>
	<path fill="#CBCBCB" d="M890.27 236.15Q894.391 241.366 898.228 246.794Q902.065 252.222 905.608 257.847Q909.151 263.472 912.389 269.278Q915.627 275.083 918.551 281.053C911.36 276.188 901.695 271.02 895.786 264.762C899.036 258.001 892.016 243.165 890.27 236.15Z"/>
	<path fill="white" d="M690.455 432.924C698.701 441.103 731.556 494.373 739.105 507.084C735.291 510.35 731.241 513.222 727.148 516.121C720.229 507.889 714.518 498.136 708.584 489.17L677.633 442.28C681.652 438.854 686.124 435.94 690.455 432.924Z"/>
	<path fill="white" d="M743.736 392.866C748.253 394.961 787.275 459.082 792.368 467.633L782.907 475.052C776.289 466.653 770.666 456.977 764.842 447.998L733.849 400.119C737.047 397.594 740.443 395.268 743.736 392.866Z"/>
	<path fill="white" d="M667.043 390.787C669.669 392.179 671.094 395.707 672.626 398.283L653.697 412.347L652.572 412.136L647.909 405.069C654.204 400.211 660.667 395.541 667.043 390.787Z"/>
	<path fill="white" d="M5132.22 493.345C5135.61 506.505 5133.93 523.704 5134.2 537.42L5135.94 623.468L5138.98 772.18C5139.56 800.444 5141.47 829.41 5139.8 857.601C5137.61 860.126 5133.78 860.547 5130.62 860.849C5117.2 862.131 5103.02 860.86 5089.48 860.905C5070.84 860.966 5051.28 862.385 5032.74 860.862C5029.93 860.632 5026.91 860.41 5024.66 858.533C5022.63 846.406 5023.27 833.688 5023.25 821.426L5023.18 770.532L5023.01 584.656L5022.65 299.184L5022.45 220.219C5022.41 202.811 5020.95 184.466 5024.21 167.331C5030.8 162.807 5105.58 165.133 5119.23 165.164C5120.17 166.023 5121.03 166.938 5121.65 168.053C5129.03 181.304 5134.27 197.092 5140.28 211.121L5179.6 302.804L5250.49 468.195C5262.38 495.948 5274.98 523.595 5286.19 551.621C5287.25 554.269 5287.77 556.157 5287.06 559C5287.3 558.48 5287.5 557.957 5287.73 557.433C5291.93 547.903 5288.58 489.687 5288.37 475.44L5286.01 279.78C5285.6 245.993 5283.53 211.541 5285.01 177.832C5285.17 174.307 5285.03 169.615 5287.44 166.999C5290.69 165.781 5293.83 165.303 5297.3 165.107C5309.85 164.396 5388.92 164.115 5395.22 166.394C5396.97 168.17 5397.92 169.695 5398.15 172.222C5399.43 186.452 5398.41 201.732 5398.45 216.073L5398.66 306.079L5398.98 592L5399.06 768.596C5399.09 797.985 5400.21 827.819 5398.97 857.163L5398.08 859.383C5393.08 862.964 5317.52 861.022 5305.36 861C5305.5 860.338 5305.59 860.138 5305.47 859.377C5304.52 853.215 5277.78 799.738 5273.31 790.233L5164.83 559.741C5160.04 549.57 5137.09 497.018 5132.22 493.345Z"/>
	<path fill="white" fill-opacity="0.1882353" d="M5398.98 592L5399.75 592C5401.35 637.001 5399.99 682.528 5399.98 727.591C5399.97 770.673 5401.34 814.133 5399.74 857.163L5398.97 857.163C5400.21 827.819 5399.09 797.985 5399.06 768.596L5398.98 592Z"/>
</svg>
