<?xml version="1.0" encoding="utf-8" ?>
<svg xmlns="http://www.w3.org/2000/svg" xmlns:xlink="http://www.w3.org/1999/xlink" width="1024" height="1024">
	<path d="M816.565 57.1726C817.584 57.1092 818.529 57.0957 819.545 57.2217C829.309 58.4328 839.628 65.6318 847.536 71.0937Q853.179 75.0536 858.674 79.2168Q864.17 83.3799 869.509 87.7407Q874.849 92.1015 880.026 96.6543Q885.203 101.207 890.211 105.946Q895.218 110.684 900.049 115.602Q904.881 120.52 909.529 125.611Q914.178 130.702 918.638 135.959Q923.098 141.217 927.363 146.633C941.721 164.661 980.978 223.639 977.908 246.493C977.398 250.289 975.8 254.008 972.66 256.351C969.285 258.87 965.218 259.354 961.141 258.899C950.836 257.749 940.475 252.977 930.693 249.678C913.255 243.797 895.459 238.496 877.106 236.473C863.058 234.924 849 236.113 835.59 240.627C808.958 249.59 781.595 271.316 759.129 288.257C746.93 297.455 734.662 306.663 722.768 316.25C724.738 318.848 726.303 321.506 727.844 324.376C745.406 311.322 762.866 298.092 780.905 285.696C801.241 271.72 823.639 264.113 848.361 268.824Q849.375 269.013 850.385 269.227Q851.394 269.441 852.397 269.681Q853.401 269.921 854.398 270.186Q855.395 270.451 856.385 270.741Q857.376 271.031 858.358 271.346Q859.341 271.661 860.315 272Q861.289 272.34 862.255 272.704Q863.22 273.068 864.176 273.457Q865.132 273.845 866.078 274.257Q867.023 274.67 867.958 275.106Q868.894 275.542 869.817 276.001Q870.741 276.461 871.653 276.943Q872.565 277.426 873.464 277.932Q874.364 278.437 875.25 278.965Q876.137 279.493 877.01 280.043Q877.882 280.594 878.741 281.166Q879.6 281.738 880.443 282.331Q881.287 282.925 882.116 283.54Q882.945 284.154 883.758 284.79Q884.571 285.425 885.367 286.081Q886.164 286.737 886.944 287.412Q887.723 288.088 888.486 288.783Q889.248 289.478 889.993 290.192Q890.738 290.906 891.465 291.639Q892.191 292.371 892.899 293.122Q893.607 293.873 894.295 294.641Q894.984 295.409 895.653 296.195Q896.322 296.98 896.971 297.783Q897.62 298.585 898.248 299.403Q898.877 300.221 899.484 301.055Q900.092 301.889 900.679 302.738Q901.265 303.587 901.83 304.45Q902.424 305.345 902.995 306.255Q903.566 307.165 904.115 308.089Q904.664 309.012 905.19 309.949Q905.716 310.886 906.218 311.836Q906.721 312.785 907.2 313.747Q907.679 314.709 908.134 315.682Q908.589 316.655 909.02 317.639Q909.451 318.623 909.858 319.618Q910.265 320.612 910.647 321.616Q911.029 322.62 911.386 323.634Q911.743 324.647 912.075 325.669Q912.408 326.69 912.714 327.72Q913.021 328.75 913.303 329.786Q913.584 330.823 913.84 331.867Q914.095 332.91 914.325 333.96Q914.555 335.009 914.759 336.064Q914.963 337.119 915.141 338.178Q915.319 339.238 915.471 340.302Q915.622 341.365 915.748 342.432Q915.873 343.499 915.973 344.569Q916.072 345.639 916.144 346.711Q916.217 347.783 916.264 348.856Q916.31 349.929 916.33 351.003Q916.349 352.078 916.343 353.152Q916.336 354.226 916.303 355.3Q916.27 356.374 916.21 357.447Q916.151 358.519 916.065 359.59Q915.979 360.661 915.866 361.73Q915.754 362.798 915.615 363.864Q915.477 364.929 915.312 365.991Q915.147 367.052 914.956 368.109Q914.765 369.167 914.548 370.219C911.362 386.021 903.271 402.491 890.997 413.222C884.965 418.495 878.002 422.801 871.35 427.237C873.264 430.68 875.105 434.084 875.918 437.978Q876.016 438.463 876.091 438.953Q876.165 439.443 876.215 439.935Q876.264 440.428 876.29 440.923Q876.315 441.417 876.316 441.913Q876.316 442.408 876.293 442.903Q876.269 443.397 876.22 443.89Q876.172 444.383 876.099 444.873Q876.026 445.363 875.93 445.849Q875.833 446.334 875.712 446.815Q875.591 447.295 875.446 447.768Q875.301 448.242 875.133 448.708Q874.965 449.174 874.774 449.631Q874.584 450.088 874.37 450.535Q874.157 450.982 873.922 451.418Q873.686 451.853 873.43 452.277Q873.173 452.701 872.896 453.111C869.038 458.886 862.484 462.075 855.849 463.377C860.693 472.96 866.921 481.864 872.054 491.311C881.337 508.391 888.385 527.163 893.604 545.859C914.239 619.778 900.502 697.195 863.17 763.386C815.214 848.413 726.297 909.849 633.308 935.811C594.17 946.739 552.259 953.542 511.55 953.932C431.455 954.7 348.47 930.799 279.002 891.569C175.982 833.392 104.275 735.949 72.7823 622.632C56.2176 564.353 51.6619 495.706 61.8964 435.958C66.4069 409.627 72.6354 383.896 82.0395 358.854C102.844 303.454 139.648 251.992 188.297 217.805C240.205 181.328 305.209 164.021 368.134 174.913Q368.624 173.112 368.959 171.276Q369.295 169.441 369.474 167.583Q369.653 165.725 369.675 163.859Q369.696 161.993 369.56 160.132C368.317 141.501 352.107 127.434 335.448 121.594C332.493 120.558 326.756 120.27 324.547 118.362C335.79 113.199 355.396 109.516 367.966 108.958C394.692 107.771 424.768 116.962 444.459 135.29C455.03 145.13 462.147 158.278 462.733 172.777C463.925 171.712 465.129 170.638 466.224 169.473C479.51 155.328 481.312 134.818 480.974 116.452C483.513 121.894 486.98 126.914 489.626 132.326C497.531 148.497 501.425 166.826 499.128 184.762Q498.851 186.839 498.489 188.903Q498.127 190.967 497.68 193.015Q497.233 195.062 496.703 197.09Q496.172 199.117 495.559 201.121Q494.946 203.125 494.251 205.102Q493.556 207.079 492.78 209.025Q492.004 210.972 491.149 212.885Q490.293 214.798 489.36 216.675Q488.427 218.551 487.418 220.388Q486.408 222.224 485.324 224.018Q484.24 225.811 483.083 227.558Q481.926 229.306 480.699 231.004Q479.471 232.702 478.174 234.349Q476.878 235.995 475.515 237.587Q474.152 239.179 472.725 240.713Q471.297 242.248 469.808 243.722C465.535 247.923 460.768 251.541 456.031 255.193C465.592 262.819 474.831 270.46 483.463 279.136C509.683 305.488 526.566 344.199 526.49 381.392Q530.067 381.387 533.607 381.903Q537.146 382.419 540.573 383.446Q541.717 383.79 542.842 384.191Q543.967 384.591 545.071 385.048Q546.175 385.504 547.254 386.014Q548.334 386.525 549.387 387.088Q550.44 387.652 551.464 388.267Q552.488 388.882 553.48 389.547Q554.471 390.213 555.429 390.927Q556.387 391.641 557.307 392.401Q558.228 393.162 559.11 393.968Q559.992 394.773 560.833 395.621Q561.673 396.47 562.471 397.359Q563.268 398.248 564.02 399.176Q564.773 400.104 565.478 401.068Q566.183 402.032 566.839 403.029Q567.495 404.027 568.101 405.057Q568.707 406.086 569.261 407.144C574.794 417.561 576.738 430.289 573.272 441.716C569.89 444.574 565.739 446.715 562.027 449.143Q551.599 455.946 541.486 463.209C543.983 466.806 546.305 470.487 548.608 474.208C559.071 466.487 569.818 459.083 580.461 451.606C585.219 448.263 590.979 445.122 595.112 441.027C598.268 437.899 599.882 431.499 601.861 427.535C603.911 423.427 606.421 419.215 609.286 415.623C620.272 401.853 633.899 395.5 646.463 384.236L647.037 383.716C645.454 380.86 643.758 378.212 641.858 375.557C631.663 381.811 616.324 393.41 606.993 401.12C600.642 394.086 595.696 385.134 590.585 377.161Q589.73 377.393 588.87 377.607C584.562 378.692 580.092 378.733 576.211 376.274C572.824 374.128 570.762 370.491 569.979 366.622C568.712 360.353 570.655 353.995 574.227 348.822Q574.64 348.211 575.084 347.622Q575.527 347.033 576 346.468Q576.473 345.902 576.974 345.361Q577.475 344.82 578.003 344.305Q578.53 343.79 579.084 343.303Q579.637 342.815 580.214 342.357Q580.791 341.898 581.391 341.469Q581.991 341.04 582.612 340.643Q583.233 340.245 583.873 339.879Q584.513 339.513 585.171 339.18Q585.829 338.847 586.503 338.548Q587.177 338.249 587.865 337.985Q588.553 337.72 589.254 337.491Q589.955 337.262 590.666 337.069Q591.378 336.875 592.098 336.718Q592.819 336.561 593.546 336.441C598.716 335.61 604.649 336.458 608.913 339.67C613.599 343.199 615.128 349.241 613.439 354.76C612.623 357.428 611.24 359.338 611.577 362.213C612.314 363.298 612.221 363.387 613.481 363.665C618.438 359.913 623.369 356.114 628.379 352.434C630.588 350.811 633.51 349.242 635.395 347.304C635.92 346.763 636.353 346.018 636.521 345.281C637.031 343.046 635.046 340.642 633.915 338.862C629.551 339.809 625.423 340.03 621.51 337.489C618.159 335.313 616.227 331.58 615.53 327.726C614.405 321.505 616.51 315.17 620.188 310.155C624.819 303.841 632.211 299.277 640.016 298.318C645.527 297.641 651.321 299.006 655.702 302.513Q656.255 302.96 656.76 303.462Q657.264 303.964 657.714 304.515Q658.164 305.065 658.555 305.66Q658.946 306.254 659.274 306.886Q659.602 307.517 659.863 308.179Q660.124 308.84 660.316 309.526Q660.507 310.211 660.628 310.912Q660.748 311.613 660.795 312.323C661.175 317.435 658.913 320.999 655.789 324.735L658.945 329.681C664.026 324.818 681.451 312.042 687.684 308.304C686.629 305.884 685.677 303.543 684.015 301.466C681.791 300.571 678.702 302.412 676.186 302.042C672.734 301.535 668.953 299.031 666.953 296.217C664.394 292.616 663.779 288.066 664.527 283.783C665.839 276.266 670.547 269.36 676.699 264.953C682.123 261.067 689.457 258.799 696.126 260.016C700.735 260.856 705.405 263.441 707.952 267.469C710.292 271.168 710.702 276.486 708.897 280.49C707.983 282.516 706.435 284.656 706.001 286.838C705.792 287.885 705.939 288.009 706.523 288.814L707.914 288.904C715.527 284.498 733.634 262.912 740.756 255.214C750.334 244.862 760.305 235.132 769.198 224.133C794.129 193.298 814.974 157.143 811.043 116.021C810.452 109.841 809.661 103.581 808.355 97.5123C806.87 90.6088 804.733 83.6302 804.018 76.5964C803.505 71.556 803.592 65.6349 807.07 61.5965C809.635 58.6181 812.774 57.5712 816.565 57.1726Z"/>
	<path fill="#CCCBCB" d="M247.879 291.506C270.684 291.179 293.491 292.446 316.295 291.934C350.768 291.16 391.181 284.546 423.039 271.154L430.406 276.556C460.301 296.611 485.358 325.63 492.551 361.749C495.753 377.831 493.862 394.137 494.921 410.372C508.577 410.302 529.812 407.407 539.867 417.76C543.773 421.781 545.947 426.895 546.818 432.374C547.084 438.064 546.337 442.896 543.1 447.772C541.541 450.12 539.228 452.845 536.203 453.101C535.025 453.2 533.72 452.916 532.723 452.275C528.496 449.555 524.629 444.789 520.869 441.381C516.632 437.539 512.031 434.209 507.366 430.918C491.525 420.922 476.249 413.237 458.417 407.292L451.325 405.535L451.417 403.925C451.815 396.709 452.531 388.784 447.15 383.071Q446.656 382.552 446.114 382.084Q445.571 381.617 444.984 381.205Q444.398 380.794 443.773 380.443Q443.149 380.092 442.493 379.805Q441.836 379.518 441.155 379.297Q440.473 379.077 439.773 378.925Q439.073 378.774 438.361 378.692Q437.649 378.611 436.933 378.601C432.591 378.529 428.31 380.48 425.338 383.614C420.997 388.191 420.92 393.248 421.091 399.142C405.918 397.937 391.028 397.628 375.854 399.116C346.975 403.591 337.013 409.235 313.826 425.785C325.067 422.414 336.358 419.189 347.939 417.201C392.29 409.585 440.945 414.882 480.829 436.414C507.207 450.655 531.005 473.445 539.739 502.813Q540.323 504.758 540.805 506.729Q541.288 508.701 541.669 510.696Q542.05 512.69 542.327 514.701Q542.605 516.712 542.779 518.735Q542.953 520.758 543.022 522.787Q543.092 524.816 543.057 526.846Q543.022 528.876 542.883 530.901Q542.743 532.926 542.5 534.942C550.083 531.584 558.143 528.096 561.502 519.835C564.079 513.496 562.873 507.003 561.464 500.582C572.476 494.161 582.406 485.881 593.211 479.108C594.06 483.118 595.047 487.01 596.258 490.927Q588.01 496.312 580.418 502.588C615.351 526.891 634.032 559.313 641.392 600.714Q641.892 603.441 642.25 606.19C643.479 612.996 643.696 620.314 643.746 627.227Q643.777 630.317 643.691 633.406Q643.605 636.495 643.4 639.578Q643.196 642.661 642.874 645.735Q642.553 648.808 642.114 651.867Q641.675 654.926 641.12 657.966Q640.565 661.005 639.894 664.022Q639.223 667.038 638.438 670.027Q637.652 673.016 636.753 675.972Q635.855 678.929 634.844 681.849Q633.833 684.769 632.711 687.648Q631.589 690.527 630.358 693.362Q629.127 696.196 627.789 698.982Q626.451 701.767 625.008 704.499Q623.565 707.232 622.018 709.907Q620.471 712.582 618.824 715.196Q617.176 717.811 615.43 720.36C582.129 769.476 531.77 791.551 475.304 802.322C509.245 810.808 542.057 810.048 574.524 796.149C615.281 778.701 646.24 742.17 662.354 701.441C682.403 650.763 680.921 599.862 659.312 550.039C660.04 550.24 660.755 550.429 661.492 550.59C685.447 555.843 702.304 550.446 722.404 537.444C727.547 533.941 732.657 529.982 738.025 526.861C741.123 532.328 744.841 536.62 751.178 538.324C757.232 539.953 763.829 538.474 769.088 535.22C774.324 531.981 778.249 526.729 779.437 520.644C780.497 515.215 779.133 509.84 775.97 505.349C774.882 503.804 773.705 502.365 772.354 501.041C777.187 497.569 781.965 493.919 787.048 490.819C789.762 496.238 793.523 500.239 799.402 502.268C805.02 504.207 811.045 503.607 816.334 500.981C823.071 497.635 826.697 492.471 828.962 485.493Q830.562 487.775 832.106 490.096Q833.649 492.416 835.136 494.773Q836.623 497.131 838.052 499.524Q839.48 501.917 840.85 504.344Q842.22 506.771 843.53 509.231Q844.84 511.691 846.09 514.182Q847.34 516.673 848.529 519.194Q849.717 521.715 850.844 524.264Q851.971 526.814 853.035 529.389Q854.1 531.965 855.101 534.566Q856.102 537.167 857.039 539.792Q857.976 542.417 858.849 545.064Q859.722 547.711 860.53 550.378Q861.338 553.045 862.081 555.732Q862.824 558.418 863.501 561.122Q864.178 563.825 864.789 566.545Q865.4 569.264 865.944 571.997Q866.488 574.731 866.966 577.477Q867.443 580.223 867.853 582.979Q868.263 585.736 868.606 588.502Q868.949 591.268 869.224 594.041Q869.5 596.815 869.707 599.594Q869.915 602.373 870.054 605.157Q870.194 607.941 870.265 610.727Q870.337 613.513 870.341 616.3Q870.344 619.087 870.28 621.873Q870.215 624.66 870.083 627.444Q869.951 630.228 869.75 633.008Q869.55 635.787 869.282 638.562Q869.014 641.336 868.678 644.103Q868.342 646.869 867.939 649.627Q867.536 652.385 867.066 655.132C864.961 667.652 862.122 680.926 857.691 692.837C853.01 711.849 841.728 733.758 831.09 750.233C798.134 801.27 746.04 832.215 687.37 844.81C592.654 865.143 495.895 836.675 410.929 795.161C366.027 773.222 323.196 747.391 279.994 722.359Q224.837 690.068 170.204 656.898C144.722 641.473 119.02 626.241 94.0169 610.044Q110.531 596.204 127.282 582.653C130.182 585.57 133.125 588.432 136.475 590.837C147.472 598.731 161.139 602.197 174.513 599.849C188.777 597.344 199.346 589.139 207.553 577.517C205.216 578.205 202.831 578.883 200.431 579.31C188.342 581.46 171.924 580.045 161.613 572.797C161.171 572.646 161.004 572.604 160.542 572.363C149.094 566.396 139.879 554.039 135.756 542C131.221 528.758 131.581 511.818 137.902 499.184C143.543 487.909 153.775 478.358 165.818 474.412C177.953 470.437 192.095 471.66 203.406 477.505C216.607 484.326 224.455 495.919 228.917 509.772Q239.568 506.817 249.543 502.057Q248.99 500.142 248.471 498.218C240.068 466.953 262.252 444.797 276.574 419.821C283.394 406.452 288.054 393.456 289.172 378.358C291.271 350.026 279.981 325.278 261.89 304.134Q255.059 297.626 247.879 291.506Z"/>
	<path fill="#FEFEFE" d="M247.879 291.506C270.684 291.179 293.491 292.446 316.295 291.934C350.768 291.16 391.181 284.546 423.039 271.154L430.406 276.556C460.301 296.611 485.358 325.63 492.551 361.749C495.753 377.831 493.862 394.137 494.921 410.372C508.577 410.302 529.812 407.407 539.867 417.76C543.773 421.781 545.947 426.895 546.818 432.374C547.084 438.064 546.337 442.896 543.1 447.772C541.541 450.12 539.228 452.845 536.203 453.101C535.025 453.2 533.72 452.916 532.723 452.275C528.496 449.555 524.629 444.789 520.869 441.381C516.632 437.539 512.031 434.209 507.366 430.918C491.525 420.922 476.249 413.237 458.417 407.292L451.325 405.535L451.417 403.925C451.815 396.709 452.531 388.784 447.15 383.071Q446.656 382.552 446.114 382.084Q445.571 381.617 444.984 381.205Q444.398 380.794 443.773 380.443Q443.149 380.092 442.493 379.805Q441.836 379.518 441.155 379.297Q440.473 379.077 439.773 378.925Q439.073 378.774 438.361 378.692Q437.649 378.611 436.933 378.601C432.591 378.529 428.31 380.48 425.338 383.614C420.997 388.191 420.92 393.248 421.091 399.142C405.918 397.937 391.028 397.628 375.854 399.116C346.975 403.591 337.013 409.235 313.826 425.785C325.067 422.414 336.358 419.189 347.939 417.201C392.29 409.585 440.945 414.882 480.829 436.414C507.207 450.655 531.005 473.445 539.739 502.813Q540.323 504.758 540.805 506.729Q541.288 508.701 541.669 510.696Q542.05 512.69 542.327 514.701Q542.605 516.712 542.779 518.735Q542.953 520.758 543.022 522.787Q543.092 524.816 543.057 526.846Q543.022 528.876 542.883 530.901Q542.743 532.926 542.5 534.942C550.083 531.584 558.143 528.096 561.502 519.835C564.079 513.496 562.873 507.003 561.464 500.582C572.476 494.161 582.406 485.881 593.211 479.108C594.06 483.118 595.047 487.01 596.258 490.927Q588.01 496.312 580.418 502.588C615.351 526.891 634.032 559.313 641.392 600.714Q641.892 603.441 642.25 606.19C641.307 610.141 639.5 614.307 638.243 618.231C633.148 634.13 627.835 649.933 619.897 664.683C602.891 696.285 574.6 716.961 540.49 727.238C499.735 739.517 463.74 732.989 424.408 719.709C409.52 714.682 394.652 709.15 380.798 701.675C375.051 698.574 369.216 695.399 363.825 691.706C325.931 665.74 296.987 623.485 283.917 579.659C271.197 537.009 277.435 504.038 294.149 464.321C299.657 451.232 305.644 438.119 312.383 425.622C304.155 425.275 288.134 424.991 280.997 421.596C280.151 421.193 279.619 420.899 278.687 420.72C277.821 420.554 277.326 420.271 276.574 419.821C283.394 406.452 288.054 393.456 289.172 378.358C291.271 350.026 279.981 325.278 261.89 304.134Q255.059 297.626 247.879 291.506Z"/>
	<path fill="#CCCBCB" d="M247.879 291.506C270.684 291.179 293.491 292.446 316.295 291.934C350.768 291.16 391.181 284.546 423.039 271.154L430.406 276.556C421.775 288.991 378.663 299.256 363.11 302.064C340.149 306.21 316.33 306.815 293.06 305.795C285.094 305.446 268.677 303.257 261.89 304.134Q255.059 297.626 247.879 291.506Z"/>
	<path fill="#CCCBCB" d="M395.079 356.98C394.311 360.712 394.09 364.522 396.334 367.837C398.467 370.988 402.095 372.43 405.726 372.984C412.725 374.053 420.571 373.155 427.648 373.104C432.79 373.067 438.214 373.762 443.301 372.98C445.814 372.593 448.008 371.823 450.065 370.303C451.533 369.216 452.709 368.021 453.819 366.578C459.792 374.306 462.238 393.878 460.773 403.407C460.534 404.961 459.4 406.139 458.417 407.292L451.325 405.535L451.417 403.925C451.815 396.709 452.531 388.784 447.15 383.071Q446.656 382.552 446.114 382.084Q445.571 381.617 444.984 381.205Q444.398 380.794 443.773 380.443Q443.149 380.092 442.493 379.805Q441.836 379.518 441.155 379.297Q440.473 379.077 439.773 378.925Q439.073 378.774 438.361 378.692Q437.649 378.611 436.933 378.601C432.591 378.529 428.31 380.48 425.338 383.614C420.997 388.191 420.92 393.248 421.091 399.142C405.918 397.937 391.028 397.628 375.854 399.116C376.126 396.748 376.417 394.385 376.926 392.055C379.311 381.151 385.126 363.438 395.079 356.98Z"/>
	<path d="M395.079 356.98C398.024 352.502 400.834 349.593 406.32 348.458C411.013 347.487 436.315 347.489 441.248 348.248C444.164 348.697 446.961 349.571 449.424 351.23C452.121 353.047 453.936 355.566 454.466 358.801C454.883 361.351 454.658 364.131 453.819 366.578C452.709 368.021 451.533 369.216 450.065 370.303C448.008 371.823 445.814 372.593 443.301 372.98C438.214 373.762 432.79 373.067 427.648 373.104C420.571 373.155 412.725 374.053 405.726 372.984C402.095 372.43 398.467 370.988 396.334 367.837C394.09 364.522 394.311 360.712 395.079 356.98Z"/>
	<path fill="#CCCBCB" d="M507.366 430.918C510.916 430.529 514.43 430.793 517.989 430.724C528.125 430.526 536.863 430.283 546.818 432.374C547.084 438.064 546.337 442.896 543.1 447.772C541.541 450.12 539.228 452.845 536.203 453.101C535.025 453.2 533.72 452.916 532.723 452.275C528.496 449.555 524.629 444.789 520.869 441.381C516.632 437.539 512.031 434.209 507.366 430.918Z"/>
	<path fill="#FEFEFE" d="M828.962 485.493Q830.562 487.775 832.106 490.096Q833.649 492.416 835.136 494.773Q836.623 497.131 838.052 499.524Q839.48 501.917 840.85 504.344Q842.22 506.771 843.53 509.231Q844.84 511.691 846.09 514.182Q847.34 516.673 848.529 519.194Q849.717 521.715 850.844 524.264Q851.971 526.814 853.035 529.389Q854.1 531.965 855.101 534.566Q856.102 537.167 857.039 539.792Q857.976 542.417 858.849 545.064Q859.722 547.711 860.53 550.378Q861.338 553.045 862.081 555.732Q862.824 558.418 863.501 561.122Q864.178 563.825 864.789 566.545Q865.4 569.264 865.944 571.997Q866.488 574.731 866.966 577.477Q867.443 580.223 867.853 582.979Q868.263 585.736 868.606 588.502Q868.949 591.268 869.224 594.041Q869.5 596.815 869.707 599.594Q869.915 602.373 870.054 605.157Q870.194 607.941 870.265 610.727Q870.337 613.513 870.341 616.3Q870.344 619.087 870.28 621.873Q870.215 624.66 870.083 627.444Q869.951 630.228 869.75 633.008Q869.55 635.787 869.282 638.562Q869.014 641.336 868.678 644.103Q868.342 646.869 867.939 649.627Q867.536 652.385 867.066 655.132C864.961 667.652 862.122 680.926 857.691 692.837C855.198 694.718 846.333 710.215 843.425 714.234C827.593 736.112 808.792 754.721 786.027 769.299C733.711 802.802 680.984 812.504 619.667 810.608C608.863 810.274 592.966 810.603 582.769 808.377C591.332 801.377 601.273 795.472 610.312 789.033C637.438 769.708 662.885 748.375 681.207 720.221C691.098 705.021 698.813 688.42 706.127 671.867C708.811 665.793 711.893 659.613 713.993 653.316C725.851 617.766 730.173 574.251 722.404 537.444C727.547 533.941 732.657 529.982 738.025 526.861C741.123 532.328 744.841 536.62 751.178 538.324C757.232 539.953 763.829 538.474 769.088 535.22C774.324 531.981 778.249 526.729 779.437 520.644C780.497 515.215 779.133 509.84 775.97 505.349C774.882 503.804 773.705 502.365 772.354 501.041C777.187 497.569 781.965 493.919 787.048 490.819C789.762 496.238 793.523 500.239 799.402 502.268C805.02 504.207 811.045 503.607 816.334 500.981C823.071 497.635 826.697 492.471 828.962 485.493Z"/>
	<path fill="#FEFEFE" d="M161.613 572.797C161.171 572.646 161.004 572.604 160.542 572.363C149.094 566.396 139.879 554.039 135.756 542C131.221 528.758 131.581 511.818 137.902 499.184C143.543 487.909 153.775 478.358 165.818 474.412C177.953 470.437 192.095 471.66 203.406 477.505C216.607 484.326 224.455 495.919 228.917 509.772C231.722 525.668 231.682 540.526 222.006 554.284C215.263 563.871 202.779 574.185 190.998 576.321C183.693 577.646 176.291 575.719 169.28 573.745C167.093 573.13 164.303 571.924 162.033 572.16L162.621 572.557L161.613 572.797Z"/>
	<path d="M159.497 532.637C157.551 524.925 156.982 516.386 161.164 509.253Q161.463 508.75 161.787 508.262Q162.111 507.774 162.458 507.304Q162.806 506.833 163.177 506.38Q163.548 505.927 163.941 505.493Q164.334 505.06 164.749 504.646Q165.163 504.233 165.598 503.84Q166.032 503.448 166.486 503.078Q166.939 502.708 167.411 502.361Q167.883 502.014 168.371 501.692Q168.859 501.369 169.363 501.071Q169.867 500.773 170.385 500.501Q170.903 500.228 171.435 499.982Q171.966 499.736 172.509 499.517Q173.051 499.298 173.604 499.106Q174.158 498.914 174.72 498.75Q175.282 498.586 175.851 498.451C182.549 496.821 189.422 498.249 195.156 502.003Q195.722 502.372 196.267 502.77Q196.813 503.168 197.338 503.594Q197.863 504.02 198.365 504.471Q198.867 504.923 199.345 505.401Q199.823 505.878 200.276 506.379Q200.729 506.88 201.156 507.404Q201.583 507.927 201.982 508.472Q202.381 509.017 202.752 509.582Q203.123 510.147 203.464 510.73Q203.805 511.313 204.116 511.913Q204.426 512.513 204.706 513.128Q204.986 513.743 205.233 514.371Q205.481 515 205.696 515.64Q205.91 516.281 206.092 516.931Q206.274 517.582 206.422 518.241Q206.57 518.9 206.684 519.566C207.898 526.477 205.987 530.832 203.337 536.931C203.315 537.72 203.313 538.243 202.993 538.982C200.68 544.311 195.703 548.432 190.315 550.32C184.553 552.339 177.402 552.029 171.904 549.338C164.546 545.735 161.856 539.936 159.497 532.637Z"/>
	<path fill="#CCCBCB" d="M159.497 532.637C161.526 526.459 163.033 521.326 169.231 518.151C172.772 516.337 176.65 516.129 180.411 517.427C183.471 518.484 186.498 520.66 187.79 523.72C188.59 525.614 188.882 527.883 188.001 529.785C186.32 533.411 184.188 534.709 185.765 539.015C186.356 540.629 187.333 541.929 188.943 542.64C191.584 543.805 194.962 543.086 197.483 541.929C199.833 540.85 201.592 538.779 203.337 536.931C203.315 537.72 203.313 538.243 202.993 538.982C200.68 544.311 195.703 548.432 190.315 550.32C184.553 552.339 177.402 552.029 171.904 549.338C164.546 545.735 161.856 539.936 159.497 532.637Z"/>
	<path fill="#FEFEFE" d="M639.51 494.643C632.617 486.995 630.024 473.817 630.497 463.808C631.068 451.714 636.428 441.15 645.382 433.043C650.867 428.076 657.276 423.908 663.341 419.675Q678.291 442.102 692.652 464.911C699.014 474.814 705.992 484.587 711.544 494.961C698.044 505.043 687.465 515.493 669.268 512.887L668.552 512.781Q667.627 512.643 666.71 512.461C655.786 510.289 645.737 503.942 639.51 494.643Z"/>
	<path fill="#CCCBCB" d="M639.51 494.643C644.327 495.778 652.817 503.821 657.864 506.639C660.466 508.092 666.992 510.403 668.552 512.781Q667.627 512.643 666.71 512.461C655.786 510.289 645.737 503.942 639.51 494.643Z"/>
	<path fill="#FEFEFE" d="M833.016 306.212C835.053 306.152 837.083 306.26 839.112 306.431C850.503 307.394 861.803 313.313 869.131 322.064C876.974 331.43 880.212 343.146 878.986 355.238Q878.887 356.312 878.734 357.38Q878.58 358.447 878.373 359.506Q878.166 360.564 877.906 361.611Q877.646 362.657 877.333 363.689Q877.02 364.722 876.656 365.737Q876.291 366.752 875.876 367.747Q875.46 368.742 874.995 369.715Q874.53 370.688 874.016 371.637Q873.503 372.585 872.942 373.506Q872.381 374.427 871.774 375.319Q871.167 376.21 870.516 377.07Q869.865 377.93 869.171 378.756Q868.477 379.582 867.743 380.371Q867.008 381.161 866.235 381.913Q865.461 382.664 864.651 383.376Q863.84 384.087 862.995 384.757C860.709 386.594 850.636 394.919 848.479 394.698C840.404 383.08 833.004 370.939 825.357 359.037C816.913 345.895 808.136 332.816 800.322 319.293C809.642 311.3 820.86 307.037 833.016 306.212Z"/>
	<path fill="#FEFEFE" d="M832.378 102.655C843.154 108.652 852.595 116.742 861.605 125.104C878.528 139.816 903.066 166.881 914.835 185.922C924.852 198.185 935.701 214.456 941.769 229.106C937.166 226.336 922.777 217.566 919.893 213.953C906.389 203.915 884.749 184.255 875.311 170.12C861.23 157.191 839.577 120.649 832.378 102.655Z"/>
	<path fill="#CCCBCB" d="M832.378 102.655C843.154 108.652 852.595 116.742 861.605 125.104C860.29 127.144 861.194 130.604 861.677 132.886C863.418 141.102 866.693 149.972 870.02 157.684C871.782 161.769 874.134 165.83 875.311 170.12C861.23 157.191 839.577 120.649 832.378 102.655Z"/>
	<path fill="#CCCBCB" d="M914.835 185.922C924.852 198.185 935.701 214.456 941.769 229.106C937.166 226.336 922.777 217.566 919.893 213.953C922.645 207.586 916.271 193.563 915.016 186.915L914.835 185.922Z"/>
	<path fill="#FEFEFE" d="M714.525 381.992C717.289 383.972 759.258 448.899 762.989 456.147C759.126 459.348 755.153 462.338 751.11 465.303C743.414 455.938 737.003 444.767 730.329 434.633C720.828 420.206 710.954 405.964 701.766 391.343C705.624 387.757 710.055 384.755 714.525 381.992Z"/>
	<path fill="#FEFEFE" d="M768.326 341.46C771.658 345.153 774.316 350.125 777.022 354.33Q785.47 367.437 793.759 380.646L807.298 401.947C810.371 406.773 813.814 411.561 816.174 416.784C813.198 419.363 810.032 421.877 806.669 423.935C796.849 409.939 787.761 395.295 778.468 380.94C771.625 370.371 764.239 359.941 757.999 349.008C761.23 346.256 764.858 343.904 768.326 341.46Z"/>
	<path fill="#FEFEFE" d="M691.52 339.399C693.153 340.105 695.55 345.477 696.516 347.217L677.305 361.728C675.713 361.186 673.083 355.831 672.051 354.154C678.291 348.954 684.997 344.241 691.52 339.399Z"/>
</svg>
