<?xml version="1.0" encoding="utf-8" ?>
<svg xmlns="http://www.w3.org/2000/svg" xmlns:xlink="http://www.w3.org/1999/xlink" width="5150" height="1024">
	<path fill="#A4A4A4" fill-opacity="0.10196079" d="M0 0L5148.25 0C5150.75 3.75313 5149.99 9.76244 5149.99 14.1208L5150.02 767.612L5150.01 954.147C5150.01 967.073 5151.66 1011.74 5149.62 1020.8C5149.36 1021.98 5148.85 1022.96 5148.25 1024L0 1024L0 0ZM716.389 360.973L721.393 368.864L722.421 369.009C729.03 364.139 735.863 359.42 742.231 354.244C740.816 351.835 738.875 347.143 736.444 346.026C729.573 350.632 722.67 355.594 716.389 360.973ZM4411.24 872.538C4465.62 868.02 4512.46 844.965 4547.98 803.104Q4550.03 800.715 4552.01 798.262Q4553.99 795.809 4555.89 793.295Q4557.79 790.782 4559.61 788.209Q4561.43 785.637 4563.17 783.008Q4564.9 780.379 4566.56 777.697Q4568.21 775.015 4569.78 772.282Q4571.35 769.549 4572.83 766.768Q4574.31 763.987 4575.7 761.161Q4577.1 758.334 4578.4 755.465Q4579.7 752.596 4580.92 749.688Q4582.13 746.779 4583.25 743.834Q4584.37 740.889 4585.39 737.909Q4586.42 734.93 4587.35 731.92Q4588.28 728.91 4589.12 725.872Q4589.96 722.834 4590.7 719.771Q4591.44 716.709 4592.08 713.624C4598.32 683.223 4596.17 650.817 4596.09 619.884L4595.75 500.611L4595.4 397.724C4595.32 377.407 4596.04 356.648 4594.33 336.413Q4594.1 333.978 4593.82 331.549Q4593.53 329.12 4593.19 326.699Q4592.85 324.277 4592.44 321.865Q4592.04 319.453 4591.58 317.051Q4591.12 314.65 4590.6 312.26Q4590.08 309.87 4589.5 307.494Q4588.92 305.117 4588.29 302.756Q4587.65 300.394 4586.96 298.049Q4586.27 295.703 4585.52 293.375Q4584.77 291.048 4583.96 288.739Q4583.15 286.43 4582.29 284.141Q4581.43 281.853 4580.51 279.586Q4579.59 277.319 4578.62 275.075Q4577.65 272.831 4576.62 270.611Q4575.6 268.392 4574.52 266.198Q4573.44 264.004 4572.3 261.837Q4571.17 259.67 4569.98 257.531Q4568.8 255.392 4567.56 253.283Q4566.32 251.174 4565.03 249.095Q4563.74 247.017 4562.4 244.971Q4561.06 242.924 4559.68 240.911Q4558.29 238.898 4556.85 236.919Q4555.41 234.94 4553.93 232.997Q4552.44 231.053 4550.91 229.147Q4549.38 227.24 4547.8 225.371Q4546.22 223.503 4544.6 221.673Q4542.98 219.843 4541.31 218.054Q4539.65 216.264 4537.94 214.515Q4536.23 212.767 4534.47 211.06Q4532.72 209.354 4530.93 207.691Q4529.14 206.027 4527.3 204.408Q4525.47 202.789 4523.6 201.215C4484.15 167.962 4436.92 153.484 4385.63 156.5C4331.33 162.231 4283.33 186.822 4248.71 229.526Q4246.81 231.83 4244.99 234.19Q4243.16 236.551 4241.41 238.966Q4239.65 241.381 4237.97 243.848Q4236.29 246.316 4234.69 248.833Q4233.09 251.35 4231.56 253.915Q4230.04 256.48 4228.59 259.091Q4227.14 261.701 4225.78 264.354Q4224.41 267.008 4223.12 269.701Q4221.84 272.395 4220.64 275.126Q4219.43 277.858 4218.31 280.625Q4217.2 283.392 4216.16 286.191Q4215.13 288.991 4214.18 291.821Q4213.23 294.651 4212.37 297.508Q4211.51 300.366 4210.73 303.248Q4209.96 306.131 4209.27 309.035Q4208.59 311.94 4207.99 314.864C4202.16 344.328 4204 375.607 4203.95 405.557L4203.75 521.978L4203.21 625.232C4203.08 648.24 4202.06 671.75 4204.47 694.646C4210.12 748.189 4237.99 796.267 4279.75 829.894C4317.62 860.387 4362.77 874.734 4411.24 872.538ZM1720.45 276.499C1697.81 281.965 1680.05 291.749 1667.65 312.165C1660.75 323.539 1658.11 334.14 1656.85 347.348C1655.33 363.209 1656.18 379.767 1656.18 395.701L1656.16 480.157L1656.17 604.291C1656.18 633.341 1653.18 669.652 1660.02 697.285C1664.48 715.326 1679.51 733.052 1695.29 742.489C1707.1 749.551 1725.04 754.763 1738.78 751.501C1757.78 749.854 1774.43 738.948 1786.47 724.545C1796.61 712.43 1802.62 699.422 1804.97 683.782C1807.55 666.612 1806.1 647.942 1806.07 630.546L1805.86 537.002L1805.39 410.176C1805.29 388.857 1806.56 366.445 1804.63 345.254Q1804.46 343.333 1804.2 341.423Q1803.93 339.513 1803.57 337.618Q1803.22 335.724 1802.77 333.849Q1802.32 331.974 1801.78 330.123Q1801.23 328.272 1800.6 326.45Q1799.97 324.628 1799.25 322.839Q1798.53 321.05 1797.73 319.299Q1796.92 317.547 1796.03 315.837Q1795.14 314.127 1794.17 312.462Q1793.19 310.798 1792.14 309.183Q1791.08 307.569 1789.95 306.007Q1788.82 304.446 1787.61 302.942Q1786.41 301.438 1785.13 299.995Q1783.85 298.552 1782.5 297.173Q1781.15 295.795 1779.74 294.483Q1778.33 293.172 1776.85 291.932C1760.47 278.334 1741.18 274.953 1720.45 276.499ZM3260.5 286.845C3261.62 288.803 3261.98 290.411 3262.07 292.663C3262.71 307.988 3262.21 323.548 3262.21 338.897L3262.21 426.124C3262.21 437.368 3263.87 473.588 3261.85 482.379C3261.62 483.365 3261.23 484.168 3260.67 485C3283.36 485.059 3331.47 487.484 3351.28 483.385C3361.18 481.339 3371.32 477.279 3378.55 469.997C3379.43 469.12 3379.13 469.507 3379.66 468.5C3396.08 458.927 3407.39 433.785 3412.04 416.243C3419.92 386.541 3419.98 350.1 3404.14 322.892C3394.31 306.008 3379.83 293.53 3360.74 288.585C3338.95 282.942 3303.4 286.067 3280.34 286.5L3260.5 286.845Z"/>
	<path d="M859.541 63.7512C862.265 63.3262 865.029 63.6739 867.673 64.4015C906.246 75.0177 970.527 145.631 991.855 179.674C998.229 189.847 1004.53 200.496 1009.67 211.341C1013.07 218.518 1015.58 226.467 1019.59 233.297C1020.88 235.498 1022.06 237.464 1022.65 239.977C1024.21 246.656 1024.22 255.789 1020.24 261.696C1012.02 273.92 975.672 257.075 964.057 253.287Q951.309 249.174 938.222 246.316C922.524 242.967 906.987 241.661 891.198 245.11C879.839 247.592 869.064 252.338 858.914 257.928C845.779 265.161 776.173 313.15 769.105 324.113C770.699 326.028 771.094 328.108 772.81 329.934C776.627 328.947 777.984 325.841 781.086 323.673L819.989 296.33C842.555 280.394 865.164 270.382 893.339 275.33C915.152 279.161 933.544 291.786 946.129 309.855Q946.746 310.743 947.34 311.646Q947.935 312.55 948.507 313.467Q949.079 314.385 949.628 315.316Q950.177 316.248 950.703 317.193Q951.229 318.137 951.731 319.095Q952.234 320.052 952.712 321.022Q953.191 321.992 953.645 322.973Q954.1 323.954 954.53 324.946Q954.96 325.938 955.365 326.941Q955.771 327.943 956.151 328.955Q956.531 329.968 956.887 330.989Q957.242 332.01 957.572 333.04Q957.902 334.07 958.206 335.107Q958.51 336.145 958.789 337.19Q959.068 338.234 959.32 339.286Q959.573 340.337 959.799 341.394Q960.026 342.452 960.226 343.514Q960.427 344.577 960.601 345.644Q960.775 346.711 960.922 347.783Q961.07 348.854 961.191 349.928Q961.312 351.003 961.406 352.08Q961.5 353.157 961.568 354.236Q961.636 355.315 961.677 356.396Q961.718 357.477 961.732 358.558Q961.746 359.639 961.734 360.72Q961.721 361.801 961.682 362.882Q961.643 363.963 961.577 365.042Q961.511 366.121 961.418 367.199Q961.325 368.276 961.206 369.351Q961.087 370.425 960.941 371.497Q960.795 372.568 960.623 373.636Q960.451 374.703 960.252 375.766C955.022 404.795 940.185 418.418 917.035 434.421C920.307 440.66 922.499 446.259 921.309 453.443C919.309 465.524 910.409 465.629 902.182 471.599C904.593 479.857 912.389 488.871 916.611 496.587Q923.134 508.707 928.372 521.436Q933.609 534.165 937.505 547.367C959 620.224 948.196 698.178 911.954 764.513C864.991 850.467 778.223 914.072 684.875 941.393Q679.427 943.027 673.941 944.526Q668.455 946.024 662.933 947.386Q657.411 948.747 651.856 949.971Q646.302 951.195 640.719 952.28Q635.136 953.365 629.528 954.312Q623.92 955.258 618.29 956.064Q612.66 956.87 607.012 957.536Q601.364 958.202 595.701 958.727Q590.038 959.252 584.363 959.637Q578.689 960.021 573.007 960.264Q567.325 960.507 561.638 960.608Q555.952 960.71 550.264 960.67Q544.577 960.63 538.893 960.448Q533.208 960.267 527.53 959.944Q521.852 959.621 516.183 959.157Q510.515 958.693 504.86 958.089Q499.205 957.484 493.566 956.738Q487.928 955.993 482.31 955.108Q476.692 954.222 471.098 953.197Q465.503 952.173 459.936 951.009Q454.369 949.845 448.833 948.544Q443.296 947.242 437.794 945.803Q432.292 944.364 426.827 942.788Q421.362 941.213 415.938 939.502Q410.514 937.791 405.135 935.945Q399.755 934.1 394.423 932.121Q389.091 930.143 383.81 928.032Q378.528 925.921 373.301 923.68Q368.074 921.439 362.904 919.068Q357.735 916.697 352.626 914.199Q347.516 911.7 342.471 909.075Q337.426 906.451 332.447 903.701C226.244 845.513 152.219 749.627 118.442 633.816C115.956 625.822 114.161 617.504 112.265 609.351C89.5837 511.8 100.122 396.105 153.942 310.107C198.49 238.924 267.774 188.107 352.858 179.429C363.724 178.321 374.915 177.771 385.845 178.204C393.679 178.515 405.293 182.309 412.587 180.638C414.368 176.465 414.372 171.465 414.692 166.981C415.129 160.846 406.476 147.032 402.48 142.431C395.825 134.768 381.076 127.595 370.944 126.854C370.026 126.787 369.265 126.651 368.379 126.363C368.486 126.267 368.59 126.166 368.701 126.074C371.173 124.02 375.004 123.349 378.028 122.342C394.083 116.998 410.154 115.244 427.144 116.363C458.114 118.402 489.607 133.03 504.127 161.692C506.655 166.682 505.425 174.272 508.727 178.039C510.087 177.719 510.419 177.185 511.31 176.149C521.61 164.181 527.334 142.854 526.013 127.344C525.949 126.589 525.898 125.84 525.851 125.083L525.786 124.113C526.191 124.421 526.516 124.64 526.868 124.991C530.124 128.237 532.268 133.49 534.175 137.63C541.4 153.318 545.533 167.878 544.938 185.29C544.261 205.1 536.225 227.207 523.135 242.248C516.944 249.361 509.185 255.773 502.292 262.239C508.651 270.145 519.471 276.468 526.866 283.783C547.354 304.052 564.635 334.227 569.794 362.757C571.053 369.715 570.474 376.963 571.557 383.956C571.626 384.403 571.863 386.681 572.069 386.94C572.766 387.816 582.296 389.033 584.143 389.54C590.146 391.189 595.854 393.78 600.844 397.526C613.169 406.778 619.206 421.097 620.986 436.052C623.193 454.601 598.078 458.357 589.029 469.674C588.156 473.971 591.353 477.095 593.618 480.735L632.338 453.231C648.134 441.83 644.821 430.628 659.326 416.413C664.568 411.275 690.033 393.696 690.83 388.744C689.826 386.13 689.601 386.124 687.147 384.715C680.9 384.618 658.123 404.009 651.78 408.577C647.325 402.902 640.022 388.375 635.022 384.894L634.317 385.136C630.22 386.496 625.856 386.057 622.028 384.046C618.523 382.204 616.075 378.914 614.916 375.161C613.133 369.389 614.298 362.774 617.252 357.592C621.095 350.849 628.394 345.747 635.874 343.884C641.855 342.394 649.067 342.901 654.378 346.225C665.496 353.185 655.462 360.751 657.419 368.868L659.276 369.153C664.999 366.534 676.428 358.145 679.699 352.801C679.796 346.675 665.773 344.291 661.588 339.228C659.572 336.79 658.54 333.701 658.846 330.54C659.526 323.517 664.29 316.203 669.767 311.952C676.03 307.091 684.667 303.829 692.676 304.969C696.472 305.509 700.189 307.256 702.482 310.428C703.818 312.276 704.227 314.614 704.815 316.773C708.027 328.554 703.336 323.861 702.315 332.223C702.141 333.644 702.663 333.913 703.484 335.008C708.953 332.879 726.65 320.571 729.987 315.846C731.342 313.927 731.118 313.679 730.68 311.505C727.228 308.706 723.472 309.498 719.234 308.89C716.116 308.444 713.498 305.875 711.71 303.401C709.131 299.832 708.297 295.263 708.974 290.954C710.229 282.968 715.75 275.781 722.292 271.287C727.743 267.543 734.901 264.957 741.568 266.249C745.988 267.105 750.061 269.711 752.487 273.541C756.612 280.05 754.219 287.278 752.582 294.159L753.656 294.537C763.312 288.982 786.597 261.433 795.56 251.731C823.716 221.252 850.182 187.015 855.208 144.669C855.855 139.222 856.745 133.746 856.436 128.244C855.607 113.464 844.046 83.012 850.216 70.6216C852.325 66.3862 855.261 65.1727 859.541 63.7512ZM716.389 360.973L721.393 368.864L722.421 369.009C729.03 364.139 735.863 359.42 742.231 354.244C740.816 351.835 738.875 347.143 736.444 346.026C729.573 350.632 722.67 355.594 716.389 360.973Z"/>
	<path fill="#A4A4A4" d="M468.103 278.128L475.819 283.846C505.818 304.483 530.847 332.855 537.577 369.653C540.418 385.187 539.702 401.462 539.939 417.223C553.598 417.131 574.211 414.124 584.651 424.518C588.49 428.34 590.428 433.055 591.651 438.235C592.687 443.15 591.769 449.027 589.303 453.402C587.953 455.799 585.998 457.996 583.2 458.625C575.014 460.465 564.727 447.505 558.845 442.686C555.832 440.217 552.404 438.12 549.134 436.006C535.229 426.79 520.577 420.081 504.796 414.765C502.895 414.319 499.38 413.612 497.745 412.552C494.584 410.504 496.598 394.158 492.166 388.986C490.298 386.805 487.464 385.945 484.684 385.774C479.38 385.446 474.482 386.622 470.479 390.263C465.89 394.437 465.999 400.588 465.901 406.286Q460.27 405.646 454.613 405.32Q448.955 404.995 443.288 404.984Q437.621 404.974 431.963 405.279Q426.304 405.584 420.671 406.203C397.475 409.726 378.739 416.916 360.575 432.043C417.248 416.694 476.199 415.015 528.78 445.04C554.472 459.71 577.3 482.414 585.203 511.647C587.903 521.634 588.367 531.525 587.857 541.815C595.491 538.242 603.596 534.724 606.706 526.184C608.877 520.222 607.848 513.819 606.626 507.762C617.179 500.464 627.812 493.261 638.282 485.846C639.142 489.843 639.844 493.974 641.142 497.854C635.881 501.659 630.364 505.327 625.518 509.649C660.92 534.494 679.449 568.244 686.876 610.502Q687.12 611.881 687.294 613.271C693.458 650.76 683.359 691.654 663.044 723.381C629.415 775.899 579.087 796.661 520.538 809.562C555.492 817.433 589.395 817.018 622.5 801.772C663.593 782.847 693.82 745.487 709.218 703.495C726.765 655.641 725.562 603.435 704.134 557.072L704.514 557.152C729.319 562.14 746.458 558.238 767.493 544.304Q775.195 539.179 782.696 533.765C786.793 539.896 790.688 544.186 798.238 545.577C804.124 546.662 810.158 545.175 815.05 541.784Q815.493 541.482 815.92 541.159Q816.348 540.836 816.759 540.492Q817.17 540.148 817.563 539.784Q817.956 539.42 818.331 539.037Q818.706 538.654 819.062 538.253Q819.418 537.852 819.753 537.434Q820.088 537.016 820.402 536.582Q820.717 536.148 821.009 535.699Q821.301 535.25 821.571 534.787Q821.841 534.324 822.088 533.848Q822.334 533.372 822.557 532.885Q822.78 532.397 822.978 531.899Q823.176 531.402 823.35 530.895Q823.524 530.388 823.672 529.873Q823.82 529.358 823.943 528.836Q824.065 528.314 824.162 527.787C825.514 520.012 822.676 514.385 818.241 508.235L817.848 507.699L831.748 497.802C835.545 503.931 839.951 508.363 847.231 509.969C853.053 511.254 858.816 509.907 863.733 506.623C868.919 503.158 871.798 498.604 874.214 492.984C908.509 539.353 921.067 602.067 912.678 658.573C910.864 670.793 908.332 688.551 902.571 699.681C898.493 717.93 888.684 737.123 878.874 752.938C846.716 804.782 796.162 836.954 737.329 850.728C593.804 884.328 459.793 807.051 340.207 738.215Q238.696 679.139 138.891 617.22Q155.386 603.246 172.189 589.644C175.948 593.354 179.658 596.788 184.196 599.559C195.879 606.692 209.54 609.46 222.965 606.152C234.683 603.264 245.386 595.692 251.63 585.321C248.678 585.922 245.716 586.45 242.716 586.73C227.346 588.166 212.18 585.556 199.964 575.471C191.832 569.752 185.946 561.527 182.143 552.412C176.484 538.847 175.967 522.268 181.738 508.67C186.724 496.924 196.556 487.049 208.46 482.365Q209.584 481.933 210.728 481.556Q211.873 481.18 213.034 480.86Q214.195 480.54 215.371 480.278Q216.547 480.016 217.734 479.812Q218.921 479.608 220.117 479.463Q221.312 479.318 222.514 479.231Q223.715 479.145 224.92 479.118Q226.124 479.091 227.328 479.124Q228.532 479.156 229.733 479.248Q230.934 479.339 232.129 479.49Q233.324 479.641 234.51 479.85Q235.697 480.059 236.871 480.327Q238.046 480.594 239.205 480.919Q240.365 481.244 241.508 481.626Q242.65 482.008 243.772 482.445Q244.895 482.883 245.994 483.375C260.97 490.122 268.479 501.905 273.996 516.677C281.121 514.693 287.796 511.974 294.604 509.105Q293.468 505.483 292.635 501.78C286.237 473.289 308.215 448.243 322.275 425.885C328.352 413.102 332.881 400.571 334.04 386.359C336.393 357.51 325.379 332.864 306.995 311.253C302.375 306.808 297.514 302.666 292.642 298.502C311.634 297.654 331.037 299.009 350.077 298.997C389.604 298.972 431.327 293.109 468.103 278.128Z"/>
	<path fill="white" d="M468.103 278.128L475.819 283.846C505.818 304.483 530.847 332.855 537.577 369.653C540.418 385.187 539.702 401.462 539.939 417.223C553.598 417.131 574.211 414.124 584.651 424.518C588.49 428.34 590.428 433.055 591.651 438.235C592.687 443.15 591.769 449.027 589.303 453.402C587.953 455.799 585.998 457.996 583.2 458.625C575.014 460.465 564.727 447.505 558.845 442.686C555.832 440.217 552.404 438.12 549.134 436.006C535.229 426.79 520.577 420.081 504.796 414.765C502.895 414.319 499.38 413.612 497.745 412.552C494.584 410.504 496.598 394.158 492.166 388.986C490.298 386.805 487.464 385.945 484.684 385.774C479.38 385.446 474.482 386.622 470.479 390.263C465.89 394.437 465.999 400.588 465.901 406.286Q460.27 405.646 454.613 405.32Q448.955 404.995 443.288 404.984Q437.621 404.974 431.963 405.279Q426.304 405.584 420.671 406.203C397.475 409.726 378.739 416.916 360.575 432.043C417.248 416.694 476.199 415.015 528.78 445.04C554.472 459.71 577.3 482.414 585.203 511.647C587.903 521.634 588.367 531.525 587.857 541.815C595.491 538.242 603.596 534.724 606.706 526.184C608.877 520.222 607.848 513.819 606.626 507.762C617.179 500.464 627.812 493.261 638.282 485.846C639.142 489.843 639.844 493.974 641.142 497.854C635.881 501.659 630.364 505.327 625.518 509.649C660.92 534.494 679.449 568.244 686.876 610.502Q687.12 611.881 687.294 613.271C679.095 634.523 674.036 656.036 662.465 676.005C644.578 706.872 614.378 726.693 580.264 735.719C529.105 749.255 463.45 730.913 418.481 704.608C373.624 678.367 339.932 629.767 326.978 579.838C316.293 538.656 325.095 502.652 342.023 464.587C346.784 453.88 351.612 442.894 357.545 432.78C350.512 432.275 343.434 431.851 336.43 431.039C331.656 430.486 325.451 429.909 322.275 425.885C328.352 413.102 332.881 400.571 334.04 386.359C336.393 357.51 325.379 332.864 306.995 311.253C302.375 306.808 297.514 302.666 292.642 298.502C311.634 297.654 331.037 299.009 350.077 298.997C389.604 298.972 431.327 293.109 468.103 278.128Z"/>
	<path fill="#A4A4A4" d="M468.103 278.128L475.819 283.846C449.911 308.441 379.661 313.896 344.635 312.965C332.642 312.646 318.736 310.084 306.995 311.253C302.375 306.808 297.514 302.666 292.642 298.502C311.634 297.654 331.037 299.009 350.077 298.997C389.604 298.972 431.327 293.109 468.103 278.128Z"/>
	<path fill="#A4A4A4" d="M420.671 406.203C420.701 405.802 420.731 405.401 420.773 405.001C422.159 391.618 428.856 373.162 439.55 364.521C439.522 368.87 439.414 372.692 442.717 375.994C450.798 384.076 479.639 380.141 491.044 379.948C493.82 377.96 496.97 376.026 499.243 373.475C505.068 383.966 508.296 402.668 504.923 414.35C504.883 414.489 504.839 414.627 504.796 414.765C502.895 414.319 499.38 413.612 497.745 412.552C494.584 410.504 496.598 394.158 492.166 388.986C490.298 386.805 487.464 385.945 484.684 385.774C479.38 385.446 474.482 386.622 470.479 390.263C465.89 394.437 465.999 400.588 465.901 406.286Q460.27 405.646 454.613 405.32Q448.955 404.995 443.288 404.984Q437.621 404.974 431.963 405.279Q426.304 405.584 420.671 406.203Z"/>
	<path d="M439.55 364.521C443.524 358.701 446.724 356.605 453.704 355.346C464.32 353.433 485.569 352.382 494.43 358.756C496.949 360.567 499.031 363.419 499.505 366.538C499.84 368.746 499.581 371.282 499.243 373.475C496.97 376.026 493.82 377.96 491.044 379.948C479.639 380.141 450.798 384.076 442.717 375.994C439.414 372.692 439.522 368.87 439.55 364.521Z"/>
	<path fill="#A4A4A4" d="M549.134 436.006C563.017 438.849 576.915 436.159 590.731 439.402L591.651 438.235C592.687 443.15 591.769 449.027 589.303 453.402C587.953 455.799 585.998 457.996 583.2 458.625C575.014 460.465 564.727 447.505 558.845 442.686C555.832 440.217 552.404 438.12 549.134 436.006Z"/>
	<path fill="white" d="M874.214 492.984C908.509 539.353 921.067 602.067 912.678 658.573C910.864 670.793 908.332 688.551 902.571 699.681C898.015 704.153 894.185 712.496 890.418 717.922C880.465 732.255 869.271 745.702 856.231 757.336C839.541 772.226 820.032 784.06 799.75 793.374C741.668 820.047 688.753 819.194 626.995 815.782C662.271 791.459 698.549 767.384 723.281 731.541C760.55 677.529 779.274 609.332 767.493 544.304Q775.195 539.179 782.696 533.765C786.793 539.896 790.688 544.186 798.238 545.577C804.124 546.662 810.158 545.175 815.05 541.784Q815.493 541.482 815.92 541.159Q816.348 540.836 816.759 540.492Q817.17 540.148 817.563 539.784Q817.956 539.42 818.331 539.037Q818.706 538.654 819.062 538.253Q819.418 537.852 819.753 537.434Q820.088 537.016 820.402 536.582Q820.717 536.148 821.009 535.699Q821.301 535.25 821.571 534.787Q821.841 534.324 822.088 533.848Q822.334 533.372 822.557 532.885Q822.78 532.397 822.978 531.899Q823.176 531.402 823.35 530.895Q823.524 530.388 823.672 529.873Q823.82 529.358 823.943 528.836Q824.065 528.314 824.162 527.787C825.514 520.012 822.676 514.385 818.241 508.235L817.848 507.699L831.748 497.802C835.545 503.931 839.951 508.363 847.231 509.969C853.053 511.254 858.816 509.907 863.733 506.623C868.919 503.158 871.798 498.604 874.214 492.984Z"/>
	<path fill="white" d="M199.964 575.471C191.832 569.752 185.946 561.527 182.143 552.412C176.484 538.847 175.967 522.268 181.738 508.67C186.724 496.924 196.556 487.049 208.46 482.365Q209.584 481.933 210.728 481.556Q211.873 481.18 213.034 480.86Q214.195 480.54 215.371 480.278Q216.547 480.016 217.734 479.812Q218.921 479.608 220.117 479.463Q221.312 479.318 222.514 479.231Q223.715 479.145 224.92 479.118Q226.124 479.091 227.328 479.124Q228.532 479.156 229.733 479.248Q230.934 479.339 232.129 479.49Q233.324 479.641 234.51 479.85Q235.697 480.059 236.871 480.327Q238.046 480.594 239.205 480.919Q240.365 481.244 241.508 481.626Q242.65 482.008 243.772 482.445Q244.895 482.883 245.994 483.375C260.97 490.122 268.479 501.905 273.996 516.677C276.673 533.497 276.147 548.533 265.701 562.935C258.455 572.925 247.372 581.443 234.968 583.28C221.234 585.315 212.419 578.293 199.964 575.471Z"/>
	<path d="M204.306 538.998C202.64 530.856 201.975 522.771 206.676 515.445Q206.986 514.965 207.319 514.501Q207.652 514.038 208.009 513.591Q208.365 513.145 208.743 512.717Q209.121 512.289 209.52 511.88Q209.919 511.471 210.338 511.083Q210.757 510.695 211.195 510.328Q211.632 509.962 212.088 509.617Q212.544 509.273 213.016 508.952Q213.488 508.631 213.976 508.334Q214.464 508.037 214.966 507.765Q215.468 507.492 215.983 507.245Q216.498 506.999 217.025 506.778Q217.552 506.557 218.089 506.363Q218.626 506.169 219.172 506.002Q219.718 505.835 220.272 505.696Q220.826 505.557 221.386 505.445Q222.002 505.321 222.623 505.227Q223.244 505.133 223.87 505.07Q224.495 505.007 225.122 504.976Q225.75 504.944 226.378 504.943Q227.007 504.942 227.634 504.972Q228.262 505.003 228.887 505.064Q229.512 505.125 230.134 505.217Q230.755 505.309 231.372 505.432Q231.988 505.555 232.597 505.708Q233.207 505.861 233.808 506.044Q234.409 506.227 235 506.44Q235.591 506.652 236.171 506.894Q236.751 507.135 237.319 507.405Q237.886 507.675 238.44 507.973Q238.993 508.271 239.531 508.595Q240.069 508.92 240.59 509.271Q241.106 509.616 241.605 509.986Q242.103 510.356 242.582 510.75Q243.062 511.144 243.521 511.562Q243.98 511.98 244.418 512.42Q244.855 512.86 245.27 513.322Q245.686 513.783 246.077 514.265Q246.469 514.746 246.836 515.247Q247.203 515.747 247.545 516.266Q247.887 516.784 248.202 517.318Q248.518 517.853 248.806 518.403Q249.095 518.952 249.355 519.516Q249.616 520.079 249.848 520.655Q250.08 521.23 250.284 521.817Q250.487 522.403 250.661 522.999Q250.835 523.595 250.979 524.199Q251.122 524.803 251.236 525.413C252.782 533.377 250.465 538.156 247.819 545.371C244.528 552.702 239.754 555.166 233.011 558.763C227.194 558.594 221.331 558.659 216.029 555.909C209.237 552.385 206.487 545.894 204.306 538.998Z"/>
	<path fill="#A4A4A4" d="M204.306 538.998C206.328 533.712 209.093 527.223 214.511 524.618C217.93 522.974 222.936 522.959 226.426 524.399C228.883 525.413 230.436 527.17 231.429 529.6C234.012 535.917 228.63 547.094 234.956 550.729C240.243 550.384 243.694 548.605 247.819 545.371C244.528 552.702 239.754 555.166 233.011 558.763C227.194 558.594 221.331 558.659 216.029 555.909C209.237 552.385 206.487 545.894 204.306 538.998Z"/>
	<path fill="white" d="M708.05 427.008C713.808 431.098 750.07 491.058 756.497 501.773C746.774 509.679 738.182 516.603 725.969 520.252C722.078 520.395 718.007 520.424 714.157 519.794Q713.027 519.619 711.907 519.389Q710.787 519.158 709.679 518.872Q708.572 518.586 707.48 518.245Q706.389 517.905 705.315 517.511Q704.242 517.116 703.189 516.669Q702.137 516.222 701.108 515.723Q700.079 515.224 699.076 514.674Q698.073 514.125 697.099 513.527Q696.124 512.928 695.181 512.282Q694.237 511.636 693.327 510.943Q692.417 510.251 691.542 509.515Q690.667 508.778 689.83 507.999Q688.993 507.22 688.196 506.4Q687.398 505.58 686.643 504.722Q685.887 503.864 685.175 502.969Q684.463 502.074 683.796 501.145C676.567 490.938 673.909 477.355 676.188 465.098C679.618 446.657 693.626 436.77 708.05 427.008Z"/>
	<path fill="white" d="M874.106 313.304C877.919 313.001 881.824 313.032 885.616 313.554Q886.719 313.71 887.814 313.92Q888.908 314.129 889.991 314.391Q891.074 314.653 892.144 314.967Q893.213 315.281 894.266 315.646Q895.318 316.011 896.352 316.426Q897.386 316.842 898.399 317.307Q899.412 317.772 900.401 318.285Q901.39 318.798 902.353 319.358Q903.316 319.919 904.251 320.525Q905.187 321.131 906.091 321.782Q906.996 322.432 907.868 323.126Q908.74 323.819 909.578 324.554Q910.416 325.289 911.217 326.063Q912.019 326.837 912.782 327.649Q913.545 328.461 914.268 329.309Q914.991 330.157 915.672 331.039Q916.333 331.911 916.95 332.816Q917.567 333.721 918.137 334.656Q918.707 335.59 919.23 336.552Q919.753 337.514 920.226 338.501Q920.7 339.489 921.123 340.498Q921.546 341.508 921.918 342.538Q922.29 343.568 922.61 344.615Q922.93 345.662 923.196 346.724Q923.463 347.786 923.676 348.86Q923.888 349.934 924.047 351.017Q924.205 352.101 924.309 353.191Q924.413 354.281 924.462 355.374Q924.511 356.468 924.504 357.563Q924.498 358.658 924.437 359.751Q924.375 360.844 924.259 361.933Q924.143 363.022 923.972 364.103C921.194 382.203 909.027 391.282 895.27 401.216C894.439 401.54 894.002 401.276 893.148 401.095C876.314 377.015 860.238 351.41 845.274 326.121C854.256 319.377 863.029 315.399 874.106 313.304Z"/>
	<path fill="white" d="M877.004 108.978C887.414 115.533 897.676 123.134 906.274 131.963C924.482 146.774 947.064 172.018 959.27 192.15Q963.391 197.366 967.228 202.794Q971.066 208.222 974.608 213.847Q978.151 219.472 981.389 225.278Q984.627 231.083 987.551 237.053C980.359 232.188 970.695 227.02 964.786 220.762C951.439 212.527 927.912 188.951 919.786 176.217C903.127 160.868 885.844 130.003 877.004 108.978Z"/>
	<path fill="#A4A4A4" d="M877.004 108.978C887.414 115.533 897.676 123.134 906.274 131.963C904.652 145.754 915.201 163.36 919.786 176.217C903.127 160.868 885.844 130.003 877.004 108.978Z"/>
	<path fill="#A4A4A4" d="M959.27 192.15Q963.391 197.366 967.228 202.794Q971.066 208.222 974.608 213.847Q978.151 219.472 981.389 225.278Q984.627 231.083 987.551 237.053C980.359 232.188 970.695 227.02 964.786 220.762C968.036 214 961.015 199.165 959.27 192.15Z"/>
	<path fill="white" d="M759.455 388.924C767.7 397.102 800.557 450.373 808.105 463.084C804.291 466.35 800.241 469.222 796.148 472.121C789.229 463.889 783.518 454.136 777.584 445.17L746.633 398.28C750.652 394.854 755.124 391.94 759.455 388.924Z"/>
	<path fill="white" d="M812.736 348.866C817.253 350.961 856.275 415.082 861.368 423.633L851.907 431.052C845.289 422.653 839.666 412.977 833.842 403.998L802.849 356.119C806.047 353.594 809.443 351.268 812.736 348.866Z"/>
	<path fill="#A4A4A4" fill-opacity="0.10196079" d="M736.444 346.026C738.875 347.143 740.816 351.835 742.231 354.244C735.863 359.42 729.03 364.139 722.421 369.009L721.393 368.864L716.389 360.973C722.67 355.594 729.573 350.632 736.444 346.026Z"/>
	<path fill="white" d="M4385.63 156.5C4436.92 153.484 4484.15 167.962 4523.6 201.215Q4525.47 202.789 4527.3 204.408Q4529.14 206.027 4530.93 207.691Q4532.72 209.354 4534.47 211.06Q4536.23 212.767 4537.94 214.515Q4539.65 216.264 4541.31 218.054Q4542.98 219.843 4544.6 221.673Q4546.22 223.503 4547.8 225.371Q4549.38 227.24 4550.91 229.147Q4552.44 231.053 4553.93 232.997Q4555.41 234.94 4556.85 236.919Q4558.29 238.898 4559.68 240.911Q4561.06 242.924 4562.4 244.971Q4563.74 247.017 4565.03 249.095Q4566.32 251.174 4567.56 253.283Q4568.8 255.392 4569.98 257.531Q4571.17 259.67 4572.3 261.837Q4573.44 264.004 4574.52 266.198Q4575.6 268.392 4576.62 270.611Q4577.65 272.831 4578.62 275.075Q4579.59 277.319 4580.51 279.586Q4581.43 281.853 4582.29 284.141Q4583.15 286.43 4583.96 288.739Q4584.77 291.048 4585.52 293.375Q4586.27 295.703 4586.96 298.049Q4587.65 300.394 4588.29 302.756Q4588.92 305.117 4589.5 307.494Q4590.08 309.87 4590.6 312.26Q4591.12 314.65 4591.58 317.051Q4592.04 319.453 4592.44 321.865Q4592.85 324.277 4593.19 326.699Q4593.53 329.12 4593.82 331.549Q4594.1 333.978 4594.33 336.413C4596.04 356.648 4595.32 377.407 4595.4 397.724L4595.75 500.611L4596.09 619.884C4596.17 650.817 4598.32 683.223 4592.08 713.624Q4591.44 716.709 4590.7 719.771Q4589.96 722.834 4589.12 725.872Q4588.28 728.91 4587.35 731.92Q4586.42 734.93 4585.39 737.909Q4584.37 740.889 4583.25 743.834Q4582.13 746.779 4580.92 749.688Q4579.7 752.596 4578.4 755.465Q4577.1 758.334 4575.7 761.161Q4574.31 763.987 4572.83 766.768Q4571.35 769.549 4569.78 772.282Q4568.21 775.015 4566.56 777.697Q4564.9 780.379 4563.17 783.008Q4561.43 785.637 4559.61 788.209Q4557.79 790.782 4555.89 793.295Q4553.99 795.809 4552.01 798.262Q4550.03 800.715 4547.98 803.104C4512.46 844.965 4465.62 868.02 4411.24 872.538C4362.77 874.734 4317.62 860.387 4279.75 829.894C4237.99 796.267 4210.12 748.189 4204.47 694.646C4202.06 671.75 4203.08 648.24 4203.21 625.232L4203.75 521.978L4203.95 405.557C4204 375.607 4202.16 344.328 4207.99 314.864Q4208.59 311.94 4209.27 309.035Q4209.96 306.131 4210.73 303.248Q4211.51 300.366 4212.37 297.508Q4213.23 294.651 4214.18 291.821Q4215.13 288.991 4216.16 286.191Q4217.2 283.392 4218.31 280.625Q4219.43 277.858 4220.64 275.126Q4221.84 272.395 4223.12 269.701Q4224.41 267.008 4225.78 264.354Q4227.14 261.701 4228.59 259.091Q4230.04 256.48 4231.56 253.915Q4233.09 251.35 4234.69 248.833Q4236.29 246.316 4237.97 243.848Q4239.65 241.381 4241.41 238.966Q4243.16 236.551 4244.99 234.19Q4246.81 231.83 4248.71 229.526C4283.33 186.822 4331.33 162.231 4385.63 156.5ZM4407.74 751.5C4426.76 749.842 4443.41 738.934 4455.46 724.499C4465.53 712.428 4471.59 699.357 4473.93 683.794C4476.51 666.671 4475.07 648.047 4475.04 630.714L4474.81 536.757L4474.3 410.014C4474.19 388.763 4475.5 366.446 4473.59 345.335Q4473.51 344.369 4473.4 343.406Q4473.29 342.443 4473.16 341.483Q4473.03 340.523 4472.87 339.566Q4472.71 338.609 4472.54 337.657Q4472.36 336.704 4472.15 335.757Q4471.95 334.809 4471.73 333.866Q4471.5 332.924 4471.25 331.987Q4471 331.05 4470.73 330.12Q4470.46 329.19 4470.16 328.266Q4469.87 327.343 4469.55 326.427Q4469.23 325.511 4468.89 324.604Q4468.55 323.696 4468.19 322.797Q4467.83 321.898 4467.44 321.008Q4467.06 320.119 4466.65 319.238Q4466.25 318.358 4465.82 317.489Q4465.39 316.619 4464.94 315.76Q4464.5 314.901 4464.03 314.053Q4463.56 313.206 4463.06 312.37Q4462.57 311.534 4462.06 310.71Q4461.55 309.887 4461.02 309.076Q4460.49 308.266 4459.94 307.468Q4459.39 306.671 4458.82 305.888Q4458.25 305.104 4457.66 304.335Q4457.07 303.566 4456.46 302.811Q4455.85 302.057 4455.22 301.318Q4454.6 300.578 4453.95 299.855Q4453.31 299.131 4452.64 298.424Q4451.98 297.717 4451.3 297.026Q4450.62 296.335 4449.93 295.661Q4449.23 294.987 4448.52 294.331Q4447.8 293.674 4447.07 293.035Q4446.34 292.397 4445.6 291.776C4429.17 278.215 4410.13 275.05 4389.42 276.5C4367.26 281.833 4349.3 291.438 4337.05 311.398Q4335.88 313.281 4334.83 315.228Q4333.77 317.175 4332.83 319.179Q4331.89 321.183 4331.06 323.238Q4330.24 325.293 4329.53 327.392Q4328.82 329.491 4328.24 331.627Q4327.65 333.763 4327.19 335.929Q4326.73 338.095 4326.4 340.284Q4326.06 342.473 4325.85 344.678C4324.21 360.852 4325.13 377.787 4325.13 394.048L4325.1 480.902L4325.12 607.08C4325.13 634.694 4322.21 670.32 4328.63 696.496C4333.08 714.649 4348.15 732.798 4364 742.35C4375.34 749.188 4393.78 754.945 4407.07 751.679C4407.29 751.624 4407.51 751.56 4407.74 751.5Z"/>
	<path fill="#A4A4A4" fill-opacity="0.10196079" d="M4389.42 276.5C4410.13 275.05 4429.17 278.215 4445.6 291.776Q4446.34 292.397 4447.07 293.035Q4447.8 293.674 4448.52 294.331Q4449.23 294.987 4449.93 295.661Q4450.62 296.335 4451.3 297.026Q4451.98 297.717 4452.64 298.424Q4453.31 299.131 4453.95 299.855Q4454.6 300.578 4455.22 301.318Q4455.85 302.057 4456.46 302.811Q4457.07 303.566 4457.66 304.335Q4458.25 305.104 4458.82 305.888Q4459.39 306.671 4459.94 307.468Q4460.49 308.266 4461.02 309.076Q4461.55 309.887 4462.06 310.71Q4462.57 311.534 4463.07 312.37Q4463.56 313.206 4464.03 314.053Q4464.5 314.901 4464.94 315.76Q4465.39 316.619 4465.82 317.489Q4466.25 318.358 4466.65 319.238Q4467.06 320.119 4467.45 321.008Q4467.83 321.898 4468.19 322.797Q4468.55 323.696 4468.89 324.604Q4469.23 325.511 4469.55 326.427Q4469.87 327.343 4470.16 328.266Q4470.46 329.19 4470.73 330.12Q4471 331.05 4471.25 331.987Q4471.5 332.924 4471.73 333.866Q4471.95 334.809 4472.15 335.757Q4472.36 336.704 4472.54 337.657Q4472.71 338.609 4472.87 339.566Q4473.03 340.523 4473.16 341.483Q4473.29 342.443 4473.4 343.406Q4473.51 344.369 4473.59 345.335C4475.5 366.446 4474.19 388.763 4474.3 410.014L4474.81 536.757L4475.04 630.714C4475.07 648.047 4476.51 666.671 4473.93 683.794C4471.59 699.357 4465.53 712.428 4455.46 724.499C4443.41 738.934 4426.76 749.842 4407.74 751.5C4407.51 751.56 4407.29 751.624 4407.07 751.679C4393.78 754.945 4375.34 749.188 4364 742.35C4348.15 732.798 4333.08 714.649 4328.63 696.496C4322.21 670.32 4325.13 634.694 4325.12 607.08L4325.1 480.902L4325.13 394.048C4325.13 377.787 4324.21 360.852 4325.85 344.678Q4326.06 342.473 4326.4 340.284Q4326.73 338.095 4327.19 335.929Q4327.65 333.763 4328.24 331.627Q4328.82 329.491 4329.53 327.392Q4330.24 325.293 4331.06 323.238Q4331.89 321.183 4332.83 319.179Q4333.77 317.175 4334.83 315.228Q4335.88 313.281 4337.05 311.398C4349.3 291.438 4367.26 281.833 4389.42 276.5Z"/>
	<path fill="white" d="M1716.7 156.499C1768.2 153.606 1815.36 167.95 1854.93 201.458Q1856.81 203.04 1858.64 204.668Q1860.48 206.295 1862.27 207.967Q1864.07 209.639 1865.82 211.354Q1867.58 213.069 1869.29 214.827Q1871 216.584 1872.67 218.383Q1874.34 220.182 1875.96 222.021Q1877.58 223.86 1879.16 225.739Q1880.74 227.617 1882.27 229.533Q1883.8 231.449 1885.29 233.403Q1886.77 235.356 1888.21 237.344Q1889.65 239.333 1891.04 241.357Q1892.42 243.38 1893.76 245.437Q1895.1 247.493 1896.39 249.582Q1897.67 251.671 1898.91 253.79Q1900.14 255.91 1901.33 258.059Q1902.51 260.208 1903.64 262.385Q1904.77 264.563 1905.85 266.767Q1906.92 268.972 1907.95 271.202Q1908.97 273.432 1909.94 275.686Q1910.91 277.94 1911.82 280.218Q1912.73 282.495 1913.59 284.794Q1914.44 287.093 1915.24 289.412Q1916.05 291.732 1916.79 294.07Q1917.53 296.408 1918.22 298.763Q1918.9 301.119 1919.53 303.49Q1920.16 305.862 1920.73 308.248Q1921.3 310.635 1921.81 313.034Q1922.32 315.434 1922.78 317.845Q1923.23 320.256 1923.62 322.678Q1924.02 325.099 1924.35 327.53Q1924.68 329.96 1924.96 332.398Q1925.23 334.836 1925.45 337.28C1927.15 358.355 1926.41 379.957 1926.5 401.118L1926.83 510.591L1927.11 620.116C1927.2 651.52 1929.3 684.041 1922.85 714.941Q1922.19 717.998 1921.44 721.032Q1920.69 724.067 1919.84 727.077Q1918.99 730.086 1918.05 733.068Q1917.1 736.049 1916.07 739Q1915.03 741.95 1913.91 744.867Q1912.78 747.784 1911.56 750.664Q1910.35 753.544 1909.04 756.384Q1907.73 759.224 1906.34 762.022Q1904.94 764.821 1903.46 767.574Q1901.97 770.327 1900.41 773.032Q1898.84 775.737 1897.19 778.392Q1895.53 781.046 1893.8 783.648Q1892.07 786.25 1890.25 788.796Q1888.44 791.342 1886.54 793.83Q1884.65 796.318 1882.68 798.745Q1880.71 801.172 1878.66 803.537C1843.23 845.089 1796.36 868.157 1742.24 872.538Q1740.07 872.667 1737.91 872.746Q1735.74 872.825 1733.57 872.855Q1731.4 872.885 1729.23 872.865Q1727.07 872.845 1724.9 872.775Q1722.73 872.705 1720.56 872.586Q1718.4 872.467 1716.24 872.298Q1714.07 872.129 1711.92 871.91Q1709.76 871.692 1707.61 871.424Q1705.45 871.157 1703.31 870.84Q1701.16 870.523 1699.03 870.157Q1696.89 869.791 1694.76 869.376Q1692.63 868.961 1690.51 868.498Q1688.39 868.035 1686.29 867.523Q1684.18 867.011 1682.08 866.451Q1679.99 865.891 1677.91 865.283Q1675.82 864.675 1673.76 864.02Q1671.69 863.365 1669.64 862.662Q1667.58 861.96 1665.55 861.211Q1663.51 860.461 1661.5 859.666Q1659.48 858.87 1657.48 858.028Q1655.48 857.187 1653.5 856.299Q1651.52 855.412 1649.57 854.48Q1647.61 853.548 1645.67 852.571Q1643.73 851.594 1641.82 850.573Q1639.91 849.552 1638.02 848.487Q1636.13 847.423 1634.26 846.315Q1632.4 845.208 1630.56 844.058Q1628.72 842.908 1626.91 841.716Q1625.1 840.525 1623.31 839.292Q1621.53 838.059 1619.77 836.786Q1618.02 835.512 1616.29 834.199Q1614.57 832.885 1612.87 831.533C1570.51 798.348 1542.09 750.447 1535.8 696.825C1533.14 674.119 1534.16 650.846 1534.28 628.021L1534.78 528.935L1534.98 409.255C1535.03 377.672 1533.15 344.874 1539.28 313.786C1545.23 283.647 1559.27 255.349 1578.31 231.345C1613.89 186.491 1660.52 163.046 1716.7 156.499ZM1738.78 751.501C1757.78 749.854 1774.43 738.948 1786.47 724.545C1796.61 712.43 1802.62 699.422 1804.97 683.782C1807.55 666.612 1806.1 647.942 1806.07 630.546L1805.86 537.002L1805.39 410.176C1805.29 388.857 1806.56 366.445 1804.63 345.254Q1804.46 343.333 1804.2 341.423Q1803.93 339.513 1803.57 337.618Q1803.22 335.724 1802.77 333.849Q1802.32 331.974 1801.78 330.123Q1801.23 328.272 1800.6 326.45Q1799.97 324.628 1799.25 322.839Q1798.53 321.05 1797.73 319.299Q1796.92 317.547 1796.03 315.837Q1795.14 314.127 1794.17 312.462Q1793.19 310.798 1792.14 309.183Q1791.08 307.569 1789.95 306.007Q1788.82 304.446 1787.61 302.942Q1786.41 301.438 1785.13 299.995Q1783.85 298.552 1782.5 297.173Q1781.15 295.795 1779.74 294.483Q1778.33 293.172 1776.85 291.932C1760.47 278.334 1741.18 274.953 1720.45 276.499C1697.81 281.965 1680.05 291.749 1667.65 312.165C1660.75 323.539 1658.11 334.14 1656.85 347.348C1655.33 363.209 1656.18 379.767 1656.18 395.701L1656.16 480.157L1656.17 604.291C1656.18 633.341 1653.18 669.652 1660.02 697.285C1664.48 715.326 1679.51 733.052 1695.29 742.489C1707.1 749.551 1725.04 754.763 1738.78 751.501Z"/>
	<path fill="#A4A4A4" fill-opacity="0.10196079" d="M1720.45 276.499C1741.18 274.953 1760.47 278.334 1776.85 291.932Q1778.33 293.172 1779.74 294.483Q1781.15 295.795 1782.5 297.173Q1783.85 298.552 1785.13 299.995Q1786.41 301.438 1787.61 302.942Q1788.82 304.446 1789.95 306.007Q1791.08 307.569 1792.14 309.183Q1793.19 310.798 1794.17 312.462Q1795.14 314.127 1796.03 315.837Q1796.92 317.547 1797.73 319.299Q1798.53 321.05 1799.25 322.839Q1799.97 324.628 1800.6 326.45Q1801.23 328.272 1801.78 330.123Q1802.32 331.974 1802.77 333.849Q1803.22 335.724 1803.57 337.618Q1803.93 339.513 1804.2 341.423Q1804.46 343.333 1804.63 345.254C1806.56 366.445 1805.29 388.857 1805.39 410.176L1805.86 537.002L1806.07 630.546C1806.1 647.942 1807.55 666.612 1804.97 683.782C1802.62 699.422 1796.61 712.43 1786.47 724.545C1774.43 738.948 1757.78 749.854 1738.78 751.501C1725.04 754.763 1707.1 749.551 1695.29 742.489C1679.51 733.052 1664.48 715.326 1660.02 697.285C1653.18 669.652 1656.18 633.341 1656.17 604.291L1656.16 480.157L1656.18 395.701C1656.18 379.767 1655.33 363.209 1656.85 347.348C1658.11 334.14 1660.75 323.539 1667.65 312.165C1680.05 291.749 1697.81 281.965 1720.45 276.499Z"/>
	<path fill="white" d="M2007.28 167.5C2037.49 165.364 2068.96 167.141 2099.3 167.166C2099.53 167.345 2099.77 167.516 2099.99 167.704C2100.3 167.967 2267.37 549.984 2268.22 561.31C2269.2 559.72 2269.43 557.98 2269.47 556.13C2270.12 524.166 2268.66 491.891 2268.29 459.899L2265.76 259.198C2265.48 239.227 2262.44 186.457 2266.28 170.447C2267.2 169.449 2267.52 168.951 2268.85 168.51C2276.38 166.01 2356.21 166.492 2367.02 167.209C2370.47 167.438 2373.69 167.947 2376.82 169.487C2377.58 170.515 2377.94 171.242 2378.21 172.509C2380.14 181.45 2378.49 205.891 2378.52 216.871L2378.8 347.813L2379.11 669.701C2379.19 725.885 2380.38 782.303 2379.31 838.467C2379.25 841.472 2379.27 843.843 2377.6 846.5C2379.41 849.184 2379.56 852.544 2379.57 855.697C2379.58 858.713 2378.67 860.204 2376.62 862.275C2365.56 865.051 2301.77 863.029 2285.33 863C2285.35 862.761 2285.37 862.523 2285.38 862.284C2285.48 859.055 2131.98 531.328 2115.83 500.337C2114.66 498.089 2113.25 496.264 2111.46 494.47C2112.27 495.61 2112.84 496.78 2113.06 498.165C2114.52 507.352 2113.83 517.853 2114.01 527.187L2115.12 583.718L2119.11 780.638C2119.3 790.372 2122.42 855.662 2119.1 859.864C2117.2 862.274 2112.28 862.752 2109.42 862.994C2096.52 864.092 2082.94 862.865 2069.94 862.916C2051.76 862.989 2032.45 864.497 2014.39 862.775C2010.85 862.439 2006.86 862.015 2004.07 859.621C2001.71 847.636 2003.27 832.824 2003.26 820.5L2003.22 739.746L2002.9 431.21L2002.68 254.678L2002.47 202.468C2002.43 193.275 2001.64 183.462 2002.83 174.362C2003.31 170.705 2004.44 169.638 2007.28 167.5Z"/>
	<path fill="white" d="M4676.24 167.5C4706.44 165.381 4737.89 167.141 4768.22 167.166C4769.09 167.893 4769.91 168.683 4770.47 169.678C4777.77 182.569 4782.87 198.163 4788.75 211.872L4827.57 302.382L4899.05 469.157C4911.07 497.227 4923.78 525.186 4935.15 553.521C4936.22 556.198 4936.78 558.088 4936.06 560.967C4936.3 560.449 4936.51 559.928 4936.74 559.408C4940.36 551.284 4937.75 500.839 4937.58 487.767C4937.13 454.128 4931.85 176.935 4935.42 169.85C4935.92 168.86 4936.44 168.756 4937.42 168.457C4945.1 166.127 5041.05 166.335 5044.52 168.371C5045.83 169.139 5046 170.676 5046.33 172.08C5049.09 183.953 5047.49 198.703 5047.5 210.995L5047.56 281.184L5047.99 586.671L5048.2 758.016C5048.24 786.235 5049.81 815.436 5048.14 843.564C5048.03 845.481 5047.56 846.867 5046.54 848.5C5048.05 850.973 5048.45 853.485 5048.47 856.355C5048.49 859.202 5047.53 860.412 5045.64 862.309C5035.1 864.999 4970.4 863.029 4954.37 863C4954.5 862.34 4954.59 862.14 4954.47 861.382C4953.39 854.475 4928.85 806.151 4924.27 796.398L4824.33 584.043C4818.89 572.494 4786.32 499.184 4781.23 495.372C4784.59 508.502 4783.03 525.843 4783.26 539.528L4784.63 613.185L4788 778.274C4788.47 803.07 4790.15 828.288 4789.57 853.046C4789.5 856.161 4789.47 858.619 4787.2 860.803Q4784.13 861.72 4780.98 862.258Q4777.83 862.797 4774.63 862.95C4755.05 864.084 4734.84 863.107 4715.21 863.069C4703.45 863.047 4690.03 864.288 4678.47 862.746C4675.66 862.37 4674.87 861.229 4673.19 859.157C4671.32 849.393 4672.24 838.339 4672.22 828.369L4672.17 776.886L4672 577.378L4671.64 284.32L4671.47 204.911C4671.45 195.174 4669.89 182.989 4671.59 173.528C4672.16 170.347 4673.79 169.243 4676.24 167.5Z"/>
	<path fill="white" d="M2471.12 167.5C2481.49 166.386 2492.62 167.126 2503.09 167.127L2563.17 167.166C2563.84 167.748 2564.54 168.4 2565.04 169.135C2568.83 174.73 2571.45 183.383 2574.14 189.655L2594.49 237.099L2671.74 417.276L2711.86 510.909C2718.14 525.564 2726.2 540.946 2731.03 556.047C2731.55 557.686 2731.54 558.997 2731.16 560.679C2731.27 560.432 2731.36 560.183 2731.47 559.939C2732.62 557.335 2733.06 555.119 2733.18 552.273C2734.39 522.167 2732.4 491.503 2732.13 461.322L2729.31 237.348C2729.21 227.827 2727.29 179.073 2729.08 173.122C2729.69 171.078 2731.06 169.361 2732.99 168.415C2737.42 166.237 2833.34 165.958 2839.75 168.22C2840.35 169.632 2840.83 171.068 2841.15 172.572C2844.42 188.064 2842.37 215.824 2842.41 232.921L2842.67 364.362L2843.06 675.397C2843.12 729.481 2844.1 783.738 2843.17 837.806C2843.11 841.008 2843.23 843.668 2841.45 846.5C2842.92 848.759 2843.15 850.931 2843.35 853.565C2843.64 857.482 2843.15 859.342 2840.59 862.297C2830.31 864.952 2765.13 863.028 2749.27 863C2749.39 862.338 2749.47 862.122 2749.34 861.371C2747.99 853.712 2712.42 781.99 2706.72 769.874L2623.3 592.609C2609.05 562.351 2595.28 531.739 2580.45 501.769C2579.03 498.902 2577.76 496.687 2575.23 494.651C2576.47 496.889 2577 499 2577.2 501.548C2578.18 514.36 2577.9 527.432 2578.16 540.285L2579.58 611.047L2584.12 833.376C2584.26 840.216 2586.11 856.253 2581.48 861.085C2578.26 862.352 2575.16 862.923 2571.71 863.114C2554.81 864.047 2537.17 862.978 2520.19 863.035C2505.2 863.085 2488.49 864.674 2473.8 862.892C2471.97 862.67 2470.97 862.768 2469.85 861.123C2468.13 858.604 2467.69 854.244 2467.39 851.271C2465.34 830.819 2467.13 799.243 2467.14 777.761L2467.02 627.035L2466.53 286.262L2466.29 203.679C2466.26 195.419 2464.65 180.533 2466.59 172.888C2467.3 170.126 2468.78 168.949 2471.12 167.5Z"/>
	<path fill="white" d="M3143.22 167.5C3147.54 167.026 3152.11 167.147 3156.45 167.138L3276.24 167.144C3352.5 167.122 3422.48 162.236 3481.24 221.046C3522.23 262.074 3537.17 318.379 3537.12 375.076C3537.06 440.821 3517.35 503.625 3469.95 550.715C3409.16 611.106 3352.69 606.313 3274.75 606.166L3260.5 606.166C3261.71 608.249 3262.05 610.151 3262.12 612.512C3263.87 670.278 3262.16 728.586 3262.13 786.408C3262.13 798.545 3264.06 851.107 3261.59 859.315C3261.33 860.201 3260.87 861.302 3260.01 861.728C3255.04 864.18 3149.67 864.159 3141.98 861.586C3141.64 861.017 3141.36 860.457 3141.12 859.838C3138.29 852.56 3140.61 733.045 3140.68 711.772L3141.83 308.002C3141.87 288.31 3140.32 174.385 3143.22 167.5ZM3260.5 286.845C3261.62 288.803 3261.98 290.411 3262.07 292.663C3262.71 307.988 3262.21 323.548 3262.21 338.897L3262.21 426.124C3262.21 437.368 3263.87 473.588 3261.85 482.379C3261.62 483.365 3261.23 484.168 3260.67 485C3283.36 485.059 3331.47 487.484 3351.28 483.385C3361.18 481.339 3371.32 477.279 3378.55 469.997C3379.43 469.12 3379.13 469.507 3379.66 468.5C3396.08 458.927 3407.39 433.785 3412.04 416.243C3419.92 386.541 3419.98 350.1 3404.14 322.892C3394.31 306.008 3379.83 293.53 3360.74 288.585C3338.95 282.942 3303.4 286.067 3280.34 286.5L3260.5 286.845Z"/>
	<path fill="#A4A4A4" fill-opacity="0.10196079" d="M3280.34 286.5C3303.4 286.067 3338.95 282.942 3360.74 288.585C3379.83 293.53 3394.31 306.008 3404.14 322.892C3419.98 350.1 3419.92 386.541 3412.04 416.243C3407.39 433.785 3396.08 458.927 3379.66 468.5C3379.13 469.507 3379.43 469.12 3378.55 469.997C3371.32 477.279 3361.18 481.339 3351.28 483.385C3331.47 487.484 3283.36 485.059 3260.67 485C3261.23 484.168 3261.62 483.365 3261.85 482.379C3263.87 473.588 3262.21 437.368 3262.21 426.124L3262.21 338.897C3262.21 323.548 3262.71 307.988 3262.07 292.663C3261.98 290.411 3261.62 288.803 3260.5 286.845L3280.34 286.5Z"/>
	<path fill="white" d="M1262.52 156.498C1311.14 153.613 1357.23 165.837 1395.78 196.168Q1397.72 197.705 1399.61 199.289Q1401.51 200.872 1403.37 202.502Q1405.23 204.131 1407.05 205.805Q1408.87 207.48 1410.65 209.198Q1412.42 210.916 1414.16 212.677Q1415.9 214.437 1417.59 216.24Q1419.28 218.043 1420.93 219.886Q1422.57 221.729 1424.18 223.612Q1425.78 225.495 1427.33 227.416Q1428.89 229.338 1430.4 231.296Q1431.91 233.255 1433.37 235.25Q1434.83 237.245 1436.24 239.275Q1437.65 241.305 1439.01 243.368Q1440.37 245.432 1441.68 247.528Q1442.99 249.624 1444.25 251.752Q1445.51 253.879 1446.72 256.037Q1447.92 258.194 1449.08 260.38Q1450.23 262.567 1451.33 264.781Q1452.43 266.994 1453.48 269.234Q1454.53 271.474 1455.52 273.739Q1456.51 276.004 1457.44 278.292Q1458.38 280.58 1459.26 282.89Q1460.14 285.201 1460.96 287.532Q1461.79 289.863 1462.55 292.213Q1463.32 294.564 1464.03 296.932Q1464.74 299.301 1465.39 301.686Q1466.04 304.071 1466.63 306.471Q1467.22 308.871 1467.76 311.285Q1468.29 313.699 1468.77 316.125Q1469.24 318.551 1469.66 320.988Q1470.07 323.425 1470.43 325.871Q1470.78 328.318 1471.08 330.772C1472.44 342.477 1475.76 399.684 1470.57 406.257C1461.09 408.947 1367.96 406.966 1351.3 406.878C1351.38 406.739 1351.46 406.602 1351.54 406.46C1354.64 400.332 1353.02 357.004 1352.03 347.69Q1351.57 343.079 1350.62 338.543Q1349.68 334.007 1348.25 329.598C1341.82 309.933 1327.63 292.372 1309.02 283.081C1291.73 274.453 1270.03 273.748 1251.82 279.859C1233.99 285.842 1221.32 299.108 1213.11 315.719Q1211.24 319.464 1209.75 323.372Q1208.25 327.28 1207.14 331.314Q1206.03 335.348 1205.32 339.471Q1204.6 343.594 1204.29 347.767C1202.75 366.304 1203.71 385.534 1203.71 404.144L1203.75 503.977L1203.73 613.353C1203.69 634.31 1202.73 655.656 1204.02 676.558Q1204.2 679.775 1204.6 682.972Q1205 686.169 1205.62 689.332Q1206.23 692.495 1207.05 695.61Q1207.88 698.725 1208.91 701.778C1215.34 720.499 1228.85 736.86 1246.82 745.473C1263.24 753.338 1283.46 754.355 1300.6 748.243C1320.21 741.252 1335.52 724.925 1344.24 706.335Q1345.51 703.636 1346.59 700.855Q1347.68 698.074 1348.56 695.224Q1349.45 692.375 1350.14 689.471Q1350.83 686.568 1351.31 683.623C1352.94 673.665 1354.94 628.502 1351.53 619.748C1351.44 619.532 1351.35 619.32 1351.26 619.106C1359.03 618.584 1366.96 618.867 1374.75 618.834C1407.06 618.851 1439.62 617.851 1471.89 619.051C1473.02 620.674 1473.55 622.149 1473.72 624.121C1474.54 633.449 1473.74 643.14 1473.79 652.525C1474.07 709.106 1463.87 756.003 1427.1 800.777C1394.16 840.89 1348.94 866.811 1297.07 871.884Q1294.71 872.133 1292.34 872.323Q1289.97 872.514 1287.59 872.645Q1285.22 872.776 1282.85 872.848Q1280.47 872.921 1278.09 872.934Q1275.72 872.946 1273.34 872.9Q1270.96 872.854 1268.59 872.749Q1266.21 872.643 1263.84 872.479Q1261.47 872.314 1259.11 872.091Q1256.74 871.867 1254.38 871.585Q1252.02 871.303 1249.67 870.962Q1247.31 870.621 1244.97 870.221Q1242.63 869.822 1240.3 869.365Q1237.96 868.907 1235.64 868.391Q1233.32 867.876 1231.02 867.303Q1228.71 866.729 1226.42 866.099Q1224.13 865.469 1221.85 864.781Q1219.58 864.094 1217.32 863.35Q1215.06 862.606 1212.82 861.807Q1210.58 861.007 1208.37 860.152Q1206.15 859.297 1203.95 858.387Q1201.76 857.476 1199.59 856.512Q1197.41 855.547 1195.27 854.529Q1193.12 853.511 1191 852.439Q1188.88 851.368 1186.78 850.244Q1184.69 849.12 1182.62 847.944Q1180.56 846.768 1178.52 845.542Q1176.48 844.315 1174.48 843.038Q1172.47 841.761 1170.5 840.434Q1168.53 839.107 1166.59 837.732Q1164.65 836.357 1162.75 834.933Q1160.85 833.51 1158.98 832.04Q1157.11 830.57 1155.28 829.054Q1153.35 827.475 1151.47 825.849Q1149.58 824.223 1147.73 822.55Q1145.89 820.878 1144.08 819.16Q1142.28 817.442 1140.52 815.679Q1138.76 813.916 1137.04 812.111Q1135.32 810.305 1133.65 808.457Q1131.98 806.609 1130.36 804.72Q1128.73 802.83 1127.16 800.901Q1125.58 798.973 1124.05 797.005Q1122.52 795.037 1121.04 793.032Q1119.57 791.027 1118.14 788.986Q1116.71 786.944 1115.33 784.868Q1113.96 782.792 1112.63 780.682Q1111.31 778.572 1110.03 776.43Q1108.76 774.288 1107.54 772.114Q1106.33 769.941 1105.16 767.738Q1104 765.535 1102.89 763.304Q1101.78 761.073 1100.73 758.815Q1099.68 756.557 1098.68 754.273Q1097.69 751.989 1096.75 749.681Q1095.81 747.374 1094.93 745.043Q1094.05 742.713 1093.22 740.361Q1092.4 738.01 1091.64 735.638Q1090.87 733.267 1090.17 730.877Q1089.46 728.487 1088.82 726.081Q1088.18 723.674 1087.59 721.252Q1087.01 718.831 1086.48 716.395Q1085.96 713.959 1085.49 711.511Q1085.03 709.064 1084.63 706.605Q1084.23 704.146 1083.89 701.678Q1083.55 699.21 1083.27 696.734Q1082.99 694.259 1082.77 691.777C1080.73 669.914 1081.72 647.516 1081.77 625.566L1082.01 520.933L1082.31 407.549C1082.43 376.178 1080.72 343.59 1087.06 312.73Q1087.68 309.751 1088.38 306.793Q1089.09 303.835 1089.89 300.899Q1090.69 297.964 1091.57 295.054Q1092.46 292.145 1093.44 289.264Q1094.41 286.383 1095.48 283.533Q1096.54 280.684 1097.69 277.868Q1098.84 275.052 1100.08 272.273Q1101.32 269.494 1102.64 266.754Q1103.96 264.014 1105.36 261.316Q1106.77 258.617 1108.25 255.964Q1109.74 253.31 1111.31 250.703Q1112.88 248.095 1114.52 245.538Q1116.17 242.98 1117.89 240.474Q1119.62 237.967 1121.42 235.515Q1123.21 233.063 1125.09 230.667Q1126.96 228.271 1128.91 225.934C1162.73 185.155 1210.06 161.353 1262.52 156.498Z"/>
	<path fill="white" d="M3568.69 167.5C3586.69 166.103 3605.41 167.143 3623.5 167.153L3725.32 167.159L3871.19 167.155C3896.75 167.157 3922.54 166.362 3948.07 167.367C3951.31 167.494 3953.07 167.567 3955.74 169.461C3957.81 179.316 3957.89 276.548 3955.81 285.651C3953.94 287.516 3952.06 287.497 3949.47 287.706C3935.27 288.853 3920.26 287.912 3905.99 287.904L3819.67 287.834C3820.25 288.694 3820.66 289.536 3820.91 290.553C3822.82 298.2 3821.32 315.213 3821.35 324.074L3821.61 416.152L3821.96 622.853L3822.02 690.222C3822.03 701.907 3822.58 713.908 3821.9 725.557C3821.79 727.472 3821.32 728.868 3820.3 730.5C3821.03 731.583 3821.58 732.748 3821.78 734.05C3823.85 747.807 3822.11 769.683 3822.14 784.116C3822.19 806.341 3823.95 836.824 3822.02 858.075C3821.86 859.872 3821.32 861.214 3820.22 862.657C3807.1 864.726 3791.18 863.043 3777.79 863.049C3755.42 863.059 3723.73 865.139 3702.29 862.003C3699.66 857.336 3701.15 779.804 3701.14 769.3L3701.11 450.863L3701.18 349.142C3701.21 330.888 3701.91 312.311 3701.08 294.087C3700.97 291.67 3700.61 289.909 3699.32 287.834L3617.73 287.865C3601.9 287.866 3585.15 289.021 3569.49 286.735L3569.38 285.474L3567.83 285.84L3567.74 286.206C3567.61 285.913 3567.46 285.624 3567.34 285.326C3565.9 281.938 3566.65 184.321 3567.29 173.399C3567.42 171.219 3567.78 169.492 3568.69 167.5Z"/>
	<path fill="white" d="M4007.03 167.5C4026.03 165.691 4046.61 167.141 4065.78 167.132C4084.83 167.122 4105.36 165.537 4124.25 167.548C4124.35 167.688 4124.46 167.823 4124.56 167.968C4125.61 169.56 4125.84 170.915 4125.92 172.783C4127.27 201.923 4126.08 231.706 4126.11 260.902L4126.34 433.89L4126.87 755.281L4127.06 825.79C4127.11 835.815 4128.86 849.467 4126.61 858.996C4126.05 861.397 4125.35 861.383 4123.31 862.637C4117.02 863.919 4011.89 863.734 4008.43 862.573C4007.24 862.176 4006.42 861.95 4005.89 860.736C4004.72 858.059 4004.97 853.59 4004.95 850.658C4003.53 690.949 4005.4 531.056 4005.7 371.333C4005.73 350.954 4004.2 174.371 4007.03 167.5Z"/>
	<path fill="white" d="M2932.41 167.5C2948.33 165.994 2965.42 167.147 2981.44 167.129C3003.96 167.105 3026.93 166.161 3049.37 167.428C3049.75 167.972 3049.85 168.057 3050.12 168.596C3051.39 171.063 3051.17 174.034 3051.2 176.727C3051.93 234.624 3053.53 856.388 3051.63 860.608C3050.94 862.141 3048.68 862.462 3047.17 862.972C3028.37 863.001 2943.75 865.443 2931.97 861.597C2931.64 861.033 2931.37 860.477 2931.14 859.866C2928.43 852.835 2930.62 611.216 2930.68 580.803L2930.97 312.492C2931.01 266.998 2930.45 221.41 2931.15 175.928C2931.19 172.9 2931.11 170.313 2932.41 167.5Z"/>
</svg>
